<?xml version="1.0" encoding="UTF-8"?>
<svg version="1.1" xmlns="http://www.w3.org/2000/svg" width="616" height="572">
<path d="M0 0 C203.28 0 406.56 0 616 0 C616 188.76 616 377.52 616 572 C412.72 572 209.44 572 0 572 C0 383.24 0 194.48 0 0 Z " fill="#FEFEFE" transform="translate(0,0)"/>
<path d="M0 0 C2.08203125 1.21484375 2.08203125 1.21484375 3.8125 2.9375 C4.48023438 3.576875 5.14796875 4.21625 5.8359375 4.875 C6.90714844 5.926875 6.90714844 5.926875 8 7 C9.63977487 8.48588014 11.28585484 9.96482568 12.9375 11.4375 C13.77023438 12.19417969 14.60296875 12.95085937 15.4609375 13.73046875 C17.149927 15.24016552 18.86383154 16.7224537 20.6015625 18.17578125 C21.41367188 18.86027344 22.22578125 19.54476562 23.0625 20.25 C23.79597656 20.85328125 24.52945313 21.4565625 25.28515625 22.078125 C27.41469538 24.46476111 27.9083234 25.80579419 28 29 C26.8203125 31.5703125 26.8203125 31.5703125 25.125 34.125 C23.36330712 36.8207998 22.02221849 38.93334452 21 42 C21.94875 42.0825 22.8975 42.165 23.875 42.25 C27 43 27 43 28.4375 44.75 C29.15096796 47.60387185 28.87637438 49.1921986 28 52 C26.07421875 53.84375 26.07421875 53.84375 23.6875 55.5 C20.20079829 58.03729726 17.49111203 60.42579578 15 64 C10.18883947 62.12899313 10.18883947 62.12899313 8.17578125 60.75390625 C5.89926731 59.69855713 5.89926731 59.69855713 3.30859375 61.08203125 C2.36113281 61.65308594 1.41367188 62.22414063 0.4375 62.8125 C-4.65037469 65.82932665 -7.98838021 67.13970734 -13.9375 67.125 C-15.49791016 67.12886719 -15.49791016 67.12886719 -17.08984375 67.1328125 C-20 67 -20 67 -22.00390625 66.2421875 C-24.24924774 65.79735229 -24.24924774 65.79735229 -27.07421875 67.35546875 C-31.04260735 70.94238341 -31.69754293 74.20717026 -32.8125 79.3125 C-33.11704102 80.55676758 -33.11704102 80.55676758 -33.42773438 81.82617188 C-38.19222664 101.74898276 -35.86591408 115.78915795 -27.265625 134.1328125 C-21.15531171 147.97531236 -16.39740298 164.02710557 -21.6875 178.9375 C-22.41735958 180.64312167 -23.18902789 182.33141841 -24 184 C-24.45503906 184.95390625 -24.91007812 185.9078125 -25.37890625 186.890625 C-26.55076558 189.28108449 -27.75469223 191.64718491 -29 194 C-25.82217227 191.10256884 -23.43615582 188.25947891 -21.125 184.625 C-13.71574475 173.26664932 -2.33717651 164.72279371 10.91015625 161.40429688 C26.71148469 158.34740436 41.14061564 161.69358191 54.48657227 170.34790039 C61.46812793 175.07675947 66.23942681 180.26388851 70.25 187.6875 C75.3620724 196.60596396 81.2583689 204.12767465 89.60546875 210.1796875 C93.41730373 213.07742829 96.83948562 216.38973832 100.32421875 219.66796875 C102.92741389 222.10798877 102.92741389 222.10798877 106.13061523 223.69750977 C109 226 109 226 109.68115234 229.29980469 C109.64973145 230.57758789 109.61831055 231.85537109 109.5859375 233.171875 C109.57744781 233.8542926 109.56895813 234.53671021 109.56021118 235.23980713 C109.52672057 237.4115038 109.45147242 239.57943383 109.375 241.75 C109.34489374 243.22520663 109.31751905 244.7004717 109.29296875 246.17578125 C109.22695085 249.78507044 109.12346917 253.39216742 109 257 C105.47426088 255.63266012 102.4337384 254.10695946 99.25 252.0625 C92.30216416 247.84638003 85.31177019 244.74497283 77 246 C73.82057546 247.26403085 70.9448602 248.95533708 68 250.6875 C41.59424988 265.35077313 13.72585722 265.65014022 -14.83203125 257.6796875 C-21.78568019 255.66460582 -28.67054244 253.43839081 -35.55078125 251.1875 C-37.00121826 250.71521973 -37.00121826 250.71521973 -38.48095703 250.23339844 C-40.50537442 249.57398122 -42.52847911 248.91052122 -44.55029297 248.24316406 C-51.13564238 246.11046006 -57.75208432 244.25437221 -64.45703125 242.546875 C-66.10296477 242.11985213 -67.74879805 241.6924427 -69.39453125 241.26464844 C-71.83939011 240.62972541 -74.28430217 240.00673341 -76.74121094 239.42004395 C-89.26686203 236.428277 -89.26686203 236.428277 -92.91674805 233.42041016 C-96.57815593 227.44505665 -95.38535745 219.08203205 -95.1875 212.375 C-95.13501844 209.79956328 -95.08669036 207.22403782 -95.04296875 204.6484375 C-95.01227295 203.51583496 -94.98157715 202.38323242 -94.94995117 201.21630859 C-94.99951956 198.03087466 -95.44474076 195.13145259 -96 192 C-97.02557985 176.5950834 -95.95140388 161.90279083 -92 147 C-91.80696289 146.26201172 -91.61392578 145.52402344 -91.41503906 144.76367188 C-87.53152135 130.2881625 -82.35897543 116.15419519 -77.45751953 101.99958801 C-76.72677223 99.88904706 -75.99807374 97.77780675 -75.26953125 95.66650391 C-74.52998325 93.5306324 -73.78522081 91.39652655 -73.02734375 89.26708984 C-71.26468654 84.22890071 -70.18063051 79.27321785 -69.375 74 C-69.25382812 73.2575 -69.13265625 72.515 -69.0078125 71.75 C-68.39569112 67.91758786 -67.91408343 64.11191783 -67.5703125 60.24609375 C-65.89471238 44.76945862 -48.43879797 32.1472859 -37.1875 23.0625 C-32.26329726 19.17862178 -27.3055251 15.33790304 -22.3125 11.54296875 C-20.09311295 9.85297079 -17.91226313 8.12568277 -15.75 6.36328125 C-14.71875 5.54214844 -13.6875 4.72101563 -12.625 3.875 C-11.70976562 3.12992188 -10.79453125 2.38484375 -9.8515625 1.6171875 C-6.26711573 -0.41563574 -4.06282176 -0.51078151 0 0 Z " fill="#6F98A9" transform="translate(221,221)"/>
<path d="M0 0 C8.0748924 4.44531534 14.05566915 8.42549693 17.1875 17.4375 C17.51105469 18.34371094 17.83460938 19.24992187 18.16796875 20.18359375 C20.08379954 26.66863599 20.29645894 33.1950434 20.61328125 39.90625 C20.72503159 42.10420741 20.83761227 44.30212272 20.95092773 46.5 C21.00948944 47.6446875 21.06805115 48.789375 21.12838745 49.96875 C21.98258356 66.35209832 22.83620407 82.72197474 24.9375 99 C25.08292236 100.19431641 25.22834473 101.38863281 25.37817383 102.61914062 C25.5305249 103.69357422 25.68287598 104.76800781 25.83984375 105.875 C25.96738037 106.77992188 26.09491699 107.68484375 26.22631836 108.6171875 C27.18555674 111.5714843 28.80284401 112.85777981 31 115 C31.0825 116.134375 31.165 117.26875 31.25 118.4375 C31.96066247 127.69344533 39.89823751 136.44060532 46 143 C43.03824877 142.38722388 41.61941217 141.74627478 39 140 C40.65 142.31 42.3 144.62 44 147 C42.68 147.33 41.36 147.66 40 148 C39.01 146.35 38.02 144.7 37 143 C37.99 146.465 37.99 146.465 39 150 C38.01 150.33 37.02 150.66 36 151 C35.67 150.34 35.34 149.68 35 149 C34.34 150.32 33.68 151.64 33 153 C32.01 153 31.02 153 30 153 C29.67 151.68 29.34 150.36 29 149 C28.67 150.32 28.34 151.64 28 153 C27.34 153 26.68 153 26 153 C26.33 148.71 26.66 144.42 27 140 C26.34 140 25.68 140 25 140 C25.04125 141.2375 25.0825 142.475 25.125 143.75 C25.13658291 147.01637962 24.8568702 149.2146947 23 152 C22.34 152 21.68 152 21 152 C21.33 150.741875 21.66 149.48375 22 148.1875 C23.87960836 139.68260545 23.42791147 130.56746881 22 122 C21.67 121.67 21.34 121.34 21 121 C21.00625506 119.14537578 21.05808926 117.29092739 21.125 115.4375 C21.18871626 108.52074588 20.4709296 101.85258018 19.5625 95 C17.67370897 80.65658229 16.84985724 66.48491522 16.39208984 52.0300293 C16.78092604 39.15630864 16.78092604 39.15630864 14 27 C10.844126 61.98681501 10.844126 61.98681501 8 97 C0.17609055 99.91605315 -7.00463564 100.51127397 -15.3125 100.4375 C-16.54798584 100.42775146 -17.78347168 100.41800293 -19.05639648 100.40795898 C-49.85988338 99.81976372 -82.67407089 89.12178945 -107 70 C-107.82371094 69.38253906 -108.64742188 68.76507813 -109.49609375 68.12890625 C-112.89162142 65.38925515 -114.75660084 63.68151765 -116.25 59.5 C-115.92546533 54.95651468 -114.52763794 52.75315936 -112 49 C-111.34 49 -110.68 49 -110 49 C-109.72397949 48.28191162 -109.44795898 47.56382324 -109.16357422 46.82397461 C-108.02785425 44.0676018 -106.75685125 41.46122529 -105.3828125 38.81640625 C-104.60478271 37.31726685 -104.60478271 37.31726685 -103.81103516 35.7878418 C-102.97644775 34.19129761 -102.97644775 34.19129761 -102.125 32.5625 C-101.54927246 31.4588208 -100.97354492 30.3551416 -100.38037109 29.21801758 C-95.12994776 19.18711179 -89.7715753 9.21808239 -84.28222656 -0.68408203 C-83.47267221 -2.14627407 -82.66682645 -3.6105312 -81.86621094 -5.07763672 C-80.92169954 -6.80774882 -79.96160965 -8.52933253 -79 -10.25 C-78.505 -11.14203125 -78.01 -12.0340625 -77.5 -12.953125 C-65.09695112 -29.87811879 -14.58976188 -7.35329663 0 0 Z " fill="#F4393C" transform="translate(420,156)"/>
<path d="M0 0 C17.96616526 14.62362289 31.91695194 32.72232615 43 53 C43.34224609 53.62406738 43.68449219 54.24813477 44.03710938 54.89111328 C51.91893456 69.46805358 57.37636595 84.60339008 61.3125 100.6875 C61.55500488 101.67161865 61.79750977 102.6557373 62.04736328 103.66967773 C65.28948962 117.59249093 66.38832155 131.37460385 66.3125 145.625 C66.31034485 146.36190063 66.3081897 147.09880127 66.30596924 147.85803223 C66.15494034 180.24107169 58.25234959 210.46615074 43 239 C42.50862549 239.92474121 42.50862549 239.92474121 42.00732422 240.86816406 C37.384521 249.48726205 32.07371934 257.33403826 26 265 C25.360625 265.84433594 24.72125 266.68867188 24.0625 267.55859375 C9.04593867 286.82789218 -9.76927261 302.97438268 -31 315 C-31.58458984 315.33338379 -32.16917969 315.66676758 -32.77148438 316.01025391 C-41.89620294 321.17624096 -51.18970387 325.32113895 -61 329 C-61.8971875 329.35707031 -62.794375 329.71414063 -63.71875 330.08203125 C-69.37645832 332.27352012 -75.1518738 333.96674241 -81 335.5625 C-81.70415039 335.76045166 -82.40830078 335.95840332 -83.13378906 336.16235352 C-98.4802321 340.21294518 -113.8682895 341.5561789 -129.6875 341.4375 C-130.55541168 341.43445862 -131.42332336 341.43141724 -132.3175354 341.42828369 C-146.51262108 341.35505863 -160.16934947 340.41374974 -174 337 C-174.93344238 336.76974121 -175.86688477 336.53948242 -176.82861328 336.30224609 C-187.21844571 333.66004242 -197.25192978 330.50021531 -207 326 C-207.99773437 325.56558594 -208.99546875 325.13117188 -210.0234375 324.68359375 C-214.39996491 322.75952986 -218.20433537 320.91981902 -222 318 C-221.41444336 318.06856201 -220.82888672 318.13712402 -220.22558594 318.20776367 C-214.57416708 318.82640684 -208.98267777 319.1173909 -203.30053711 319.23950195 C-194.27038393 319.45558965 -186.28013088 320.08437413 -177.640625 322.87890625 C-162.08705315 327.66847183 -146.46758144 328.39427962 -130.3125 328.4375 C-129.02888077 328.44662415 -129.02888077 328.44662415 -127.71932983 328.45593262 C-110.02968802 328.53811643 -92.84246092 326.56979802 -76 321 C-75.37125977 320.80067871 -74.74251953 320.60135742 -74.09472656 320.39599609 C-56.28165107 314.72740592 -39.29047138 306.78541365 -24 296 C-22.97777344 295.28199219 -21.95554687 294.56398438 -20.90234375 293.82421875 C-13.42582532 288.39288987 -6.67696749 282.36309295 0 276 C0.71929687 275.33355469 1.43859375 274.66710937 2.1796875 273.98046875 C8.1931614 268.24472558 13.09786666 261.67717689 18 255 C18.76570312 253.96746094 19.53140625 252.93492187 20.3203125 251.87109375 C26.4427101 243.34880162 31.32842545 234.37783364 36 225 C36.33306152 224.33645508 36.66612305 223.67291016 37.00927734 222.98925781 C42.99760471 210.96443152 46.65636628 198.81294957 49.6875 185.75 C50.00968506 184.36542603 50.00968506 184.36542603 50.33837891 182.95288086 C50.53995605 182.05577393 50.7415332 181.15866699 50.94921875 180.234375 C51.21738403 179.04666504 51.21738403 179.04666504 51.4909668 177.83496094 C52.76360737 170.74723801 53.18761405 163.67092629 53.30859375 156.48046875 C53.33128326 155.14702171 53.33128326 155.14702171 53.35443115 153.78663635 C53.39415905 150.92022495 53.41940185 148.05412766 53.4375 145.1875 C53.4436734 144.21067261 53.4498468 143.23384521 53.45620728 142.22741699 C53.5083228 122.58932079 51.22656407 104.41421272 44 86 C43.58621094 84.80761719 43.17242187 83.61523438 42.74609375 82.38671875 C35.37375439 61.54610568 24.20604754 42.15636824 8.9375 26.078125 C4.63942982 21.46809812 2.47018691 18.29074142 1.25 12 C1.00765625 10.80375 0.7653125 9.6075 0.515625 8.375 C0.07691766 5.50346107 -0.10962883 2.8942012 0 0 Z " fill="#7299A9" transform="translate(442,170)"/>
<path d="M0 0 C5.68526482 -0.33442734 9.17881632 -0.29870463 14 3 C16.32962299 3.72800718 18.64228173 4.37712762 21 5 C29.69238271 7.35706145 37.26981288 10.35259291 45 15 C45 15.66 45 16.32 45 17 C45.99 17.33 46.98 17.66 48 18 C48.9140625 19.63671875 48.9140625 19.63671875 49.625 21.6875 C49.86476563 22.35136719 50.10453125 23.01523438 50.3515625 23.69921875 C52.12877458 30.00510982 52.306242 36.40227659 52.61328125 42.90625 C52.72503159 45.10420741 52.83761227 47.30212272 52.95092773 49.5 C53.00948944 50.6446875 53.06805115 51.789375 53.12838745 52.96875 C53.98258356 69.35209832 54.83620407 85.72197474 56.9375 102 C57.08292236 103.19431641 57.22834473 104.38863281 57.37817383 105.61914062 C57.5305249 106.69357422 57.68287598 107.76800781 57.83984375 108.875 C57.96738037 109.77992188 58.09491699 110.68484375 58.22631836 111.6171875 C59.18555674 114.5714843 60.80284401 115.85777981 63 118 C63.0825 119.134375 63.165 120.26875 63.25 121.4375 C63.96066247 130.69344533 71.89823751 139.44060532 78 146 C75.03824877 145.38722388 73.61941217 144.74627478 71 143 C72.65 145.31 74.3 147.62 76 150 C74.68 150.33 73.36 150.66 72 151 C71.01 149.35 70.02 147.7 69 146 C69.99 149.465 69.99 149.465 71 153 C70.01 153.33 69.02 153.66 68 154 C67.67 153.34 67.34 152.68 67 152 C66.34 153.32 65.68 154.64 65 156 C64.01 156 63.02 156 62 156 C61.67 154.68 61.34 153.36 61 152 C60.67 153.32 60.34 154.64 60 156 C59.34 156 58.68 156 58 156 C58.33 151.71 58.66 147.42 59 143 C58.34 143 57.68 143 57 143 C57.04125 144.2375 57.0825 145.475 57.125 146.75 C57.13658291 150.01637962 56.8568702 152.2146947 55 155 C54.34 155 53.68 155 53 155 C53.33 153.741875 53.66 152.48375 54 151.1875 C55.87960836 142.68260545 55.42791147 133.56746881 54 125 C53.67 124.67 53.34 124.34 53 124 C53.00625506 122.14537578 53.05808926 120.29092739 53.125 118.4375 C53.18871626 111.52074588 52.4709296 104.85258018 51.5625 98 C49.67370897 83.65658229 48.84985724 69.48491522 48.39208984 55.0300293 C48.78092604 42.15630864 48.78092604 42.15630864 46 30 C42.844126 64.98681501 42.844126 64.98681501 40 100 C32.17609055 102.91605315 24.99536436 103.51127397 16.6875 103.4375 C15.45201416 103.42775146 14.21652832 103.41800293 12.94360352 103.40795898 C-17.85988338 102.81976372 -50.67407089 92.12178945 -75 73 C-75.82371094 72.38253906 -76.64742188 71.76507813 -77.49609375 71.12890625 C-83.38198063 66.37993113 -83.38198063 66.37993113 -84 62.0625 C-84 61.051875 -84 60.04125 -84 59 C-83.01 59 -82.02 59 -81 59 C-79.6328125 60.43359375 -79.6328125 60.43359375 -78.125 62.4375 C-73.32392113 68.20084201 -67.22496792 71.93658536 -61 76 C-59.948125 76.71542969 -58.89625 77.43085938 -57.8125 78.16796875 C-54.65425554 80.2252141 -51.492808 81.59062133 -48 83 C-46.865625 83.53625 -45.73125 84.0725 -44.5625 84.625 C-37.61423559 87.30678627 -30.24113627 87.20582527 -22.875 87.25 C-22.00746094 87.270625 -21.13992188 87.29125 -20.24609375 87.3125 C-15.06794591 87.34402601 -11.43829072 86.96106859 -7 84 C-4.92983103 82.01204263 -4.92983103 82.01204263 -3.25 79.8125 C-2.20681006 78.50851257 -1.13170313 77.22795623 0 76 C0.66 76 1.32 76 2 76 C2.185625 74.8553125 2.185625 74.8553125 2.375 73.6875 C3 71 3 71 5 68 C5.39901301 66.28479824 5.72522359 64.55193278 6 62.8125 C6.52199273 59.55470611 7.14403821 56.49020184 8.04296875 53.30859375 C9.31931841 48.30470944 9.33057187 43.3896391 9.3125 38.25 C9.32861328 37.31800781 9.34472656 36.38601562 9.36132812 35.42578125 C9.36229492 34.07806641 9.36229492 34.07806641 9.36328125 32.703125 C9.36626221 31.89520508 9.36924316 31.08728516 9.37231445 30.25488281 C8.91588696 27.49057832 7.73719711 26.15319424 6 24 C6 23.34 6 22.68 6 22 C5.46375 21.7525 4.9275 21.505 4.375 21.25 C1.43575748 19.70303025 -1.25754408 17.86985631 -4 16 C-0.11604174 14.70534725 1.14653128 15.66880171 5 17 C16.98503791 19.89793663 28.74662492 20.13682429 41 20 C37.61190222 16.03557631 33.97084829 14.30657072 29.25 12.375 C28.50790283 12.06723633 27.76580566 11.75947266 27.0012207 11.44238281 C20.46578734 8.88651097 14.26406983 7.95983626 7.29296875 7.484375 C3.875572 6.98169742 2.31722655 6.54486341 0 4 C0 2.68 0 1.36 0 0 Z " fill="#B8312E" transform="translate(388,153)"/>
<path d="M0 0 C0.79922379 -0.00696899 1.59844757 -0.01393799 2.42189026 -0.02111816 C4.9831374 -0.03839712 7.54416577 -0.04483656 10.10546875 -0.046875 C10.97979553 -0.04788208 11.85412231 -0.04888916 12.75494385 -0.04992676 C25.51862195 -0.03996772 37.78951926 0.44767472 50.29296875 3.203125 C51.72375136 3.48542602 53.15474324 3.76666837 54.5859375 4.046875 C69.40867369 7.10288311 83.70989125 12.57946698 97.29296875 19.203125 C93.54426903 20.45269157 92.35428142 19.74100132 88.66796875 18.453125 C73.64459057 13.65630358 58.06552442 11.56410995 42.35546875 13.828125 C39.28198427 14.25947047 36.99480161 14.00529196 33.9921875 13.25390625 C27.04964801 11.79498977 20.11237804 11.76613789 13.04296875 11.765625 C12.33263489 11.76356049 11.62230103 11.76149597 10.89044189 11.7593689 C-6.41221558 11.768295 -25.89227432 12.7861266 -41.70703125 20.203125 C-43.61212265 20.7074139 -45.52944936 21.16811449 -47.45703125 21.578125 C-53.64517544 23.07155089 -59.01960103 25.38128462 -64.70703125 28.203125 C-65.99318538 28.82224694 -67.27966468 29.44069365 -68.56640625 30.05859375 C-89.40764712 40.16193554 -108.90703947 54.15576545 -124.70703125 71.203125 C-125.47273438 71.99589844 -125.47273438 71.99589844 -126.25390625 72.8046875 C-138.68659688 86.24383404 -150.5252649 103.51388348 -156.44140625 120.91015625 C-157.51069687 123.69229204 -158.71206105 126.10792237 -160.1171875 128.72265625 C-163.26337202 134.91463984 -164.80418369 141.34722349 -166.39453125 148.078125 C-166.68908203 149.26792969 -166.98363281 150.45773437 -167.28710938 151.68359375 C-168.13774593 155.18171711 -168.93570397 158.68672766 -169.70703125 162.203125 C-170.02595337 163.60425537 -170.02595337 163.60425537 -170.35131836 165.03369141 C-172.13754364 173.99093453 -171.97540666 182.98232841 -171.9128418 192.07617188 C-171.89452196 194.8295212 -171.89233325 197.58253333 -171.89257812 200.3359375 C-171.88766307 202.11719036 -171.8818348 203.89844098 -171.875 205.6796875 C-171.87388718 206.48725494 -171.87277435 207.29482239 -171.87162781 208.12686157 C-171.83098403 213.10464975 -171.46484107 217.94133201 -170.80810547 222.87741089 C-170.62471149 227.09729959 -172.06274977 230.79645141 -173.51953125 234.703125 C-173.79345703 235.49976563 -174.06738281 236.29640625 -174.34960938 237.1171875 C-176.38734334 242.88343709 -176.38734334 242.88343709 -178.70703125 245.203125 C-192.55173714 195.87295934 -184.41595149 142.83233252 -159.6171875 98.42578125 C-151.36652471 84.02058019 -141.22140063 71.12522701 -129.70703125 59.203125 C-128.78742932 58.2203618 -127.86816188 57.2372855 -126.94921875 56.25390625 C-95.36060901 22.99385508 -46.04391105 0.27203384 0 0 Z " fill="#7097A7" transform="translate(300.70703125,120.796875)"/>
<path d="M0 0 C19.3257034 19.25753514 33.10223674 41.21296387 42 67 C42.35578125 67.93199219 42.7115625 68.86398437 43.078125 69.82421875 C44.19266009 72.85380817 45.11075287 75.8962185 46 79 C46.32363525 80.06154297 46.32363525 80.06154297 46.65380859 81.14453125 C50.96114254 95.79606106 51.48790913 110.15309868 51.5 125.3125 C51.5043103 126.24231689 51.50862061 127.17213379 51.51306152 128.13012695 C51.54495177 144.21273243 50.22578433 160.1089779 45.5 175.5625 C45.28061768 176.30806152 45.06123535 177.05362305 44.83520508 177.82177734 C44.41085732 179.26119761 43.98254311 180.69945758 43.54931641 182.13623047 C43.09550055 183.67597723 42.68794002 185.22927495 42.29296875 186.78515625 C40.15323225 195.05420248 35.98019004 202.49813502 32 210 C31.64631348 210.67401855 31.29262695 211.34803711 30.92822266 212.04248047 C25.46772933 222.38011318 19.16427696 231.77070973 12 241 C11.27167969 241.95390625 10.54335938 242.9078125 9.79296875 243.890625 C-16.61979423 277.40886225 -57.01693635 300.73754665 -99 308 C-99.97936523 308.17587646 -100.95873047 308.35175293 -101.96777344 308.53295898 C-112.18860828 310.19693713 -122.28797548 310.43797746 -132.625 310.4375 C-133.51897491 310.43923218 -134.41294983 310.44096436 -135.33401489 310.44274902 C-154.7556526 310.4263001 -174.01565131 308.93771336 -192 301 C-192 300.67 -192 300.34 -192 300 C-181.85411742 297.369586 -174.18269355 297.98413537 -163.9765625 300.24609375 C-138.07628874 305.46713612 -109.16219953 303.27925128 -84 296 C-83.02240723 295.7220459 -82.04481445 295.4440918 -81.03759766 295.15771484 C-69.03204346 291.66113047 -57.95153948 287.00239797 -47 281 C-45.78650899 280.35537337 -44.57296787 279.71084108 -43.359375 279.06640625 C-18.30974403 265.51412436 1.13560111 244.30205825 17 221 C17.66902344 220.01773438 18.33804688 219.03546875 19.02734375 218.0234375 C27.71097219 204.17049612 33.38423905 187.97806262 38 172.375 C38.2784375 171.44139648 38.556875 170.50779297 38.84375 169.54589844 C42.50602154 156.54941231 43.35084591 143.69012148 43.31567383 130.27001953 C43.31252117 127.76680563 43.33604708 125.26478719 43.36132812 122.76171875 C43.5099872 85.37786144 30.244147 45.04257438 5 17 C4.47277344 16.49339844 3.94554687 15.98679688 3.40234375 15.46484375 C0.06245414 12.12495414 -0.29514066 9.66736173 -0.3125 5.125 C-0.23271654 3.4153544 -0.1366051 1.70604587 0 0 Z " fill="#F8FD74" transform="translate(445,189)"/>
<path d="M0 0 C5.75 0.75 5.75 0.75 8 3 C8.5215797 9.2054611 6.13080453 14.2510846 3.2734375 19.5859375 C0.28767921 25.24605597 -1.33870285 30.65154736 -2 37 C4.40981847 35.74930371 7.46049935 32.18681542 11 27 C15.97191087 18.45475005 19.97052291 9.40732361 23 0 C27.765625 -0.125 27.765625 -0.125 29.875 1 C31.69440366 4.2344954 30.72612043 7.5105671 30 11 C29.03487607 14.0486522 27.85137223 16.98559163 26.625 19.9375 C24.19705724 25.89933401 21.96503073 31.86812433 20 38 C33.24392254 28.52842425 41.52514848 15.936388 45 0 C48.375 0.3125 48.375 0.3125 52 1 C54 4 54 4 53.75 6.9375 C53.09433729 9.6147894 52.25155351 11.58032989 51 14 C51 14.99 51 15.98 51 17 C51.52787109 16.12988281 51.52787109 16.12988281 52.06640625 15.2421875 C56.19395357 8.71139462 60.59828223 4.26781185 67 0 C70.75698557 -0.37569856 71.75366476 -0.1642235 75 2 C75.29296875 4.05859375 75.29296875 4.05859375 75.1875 6.4375 C75.14689453 7.61119141 75.14689453 7.61119141 75.10546875 8.80859375 C75.07066406 9.53175781 75.03585937 10.25492187 75 11 C75 11.99 75 12.98 75 14 C75.63615234 13.11248047 75.63615234 13.11248047 76.28515625 12.20703125 C84.8747698 0.6346508 84.8747698 0.6346508 92.25 -0.5 C95 0 95 0 96.875 1.125 C98.54325244 3.90542073 98.26847646 5.77082479 98 9 C97.08079847 11.76617523 95.87179847 14.3678699 94.625 17 C91.40779015 23.95754325 88.92344298 30.30464187 88 38 C96.69684821 35.62813231 101.20227288 27.48530665 105.421875 20.16015625 C105.94265625 19.44730469 106.4634375 18.73445313 107 18 C107.99 18 108.98 18 110 18 C106.59934566 27.11630811 100.1613066 36.55912893 92 42 C88.35736822 43.21421059 85.81087656 43.56457431 82 43 C79.5 41.0625 79.5 41.0625 78 38 C77.25058992 30.50589916 81.04209463 23.64668853 84 17 C84.78015895 15.08711026 85.55181935 13.17071864 86.3125 11.25 C86.63863281 10.43015625 86.96476562 9.6103125 87.30078125 8.765625 C87.64689453 7.89164062 87.64689453 7.89164062 88 7 C82.13511441 9.877801 78.99187415 12.97078991 75.3125 18.3125 C74.62317383 19.2705957 74.62317383 19.2705957 73.91992188 20.24804688 C67.89705407 28.68207702 67.89705407 28.68207702 64.75 38.4375 C64.60046875 39.30246094 64.4509375 40.16742188 64.296875 41.05859375 C64.19890625 41.69925781 64.1009375 42.33992188 64 43 C61.125 42.6875 61.125 42.6875 58 42 C55.49149994 38.2372499 55.39753819 35.35318235 56 31 C57.0581643 27.64856588 58.4655131 24.50054684 59.9375 21.3125 C63.19592683 14.3899509 63.19592683 14.3899509 65 7 C58.24368284 11.09650265 54.47546863 16.53098631 50 23 C49.39285156 23.8765625 48.78570312 24.753125 48.16015625 25.65625 C44.5304155 31.26504256 42.81755642 36.37497384 42 43 C37.53955993 43.3616573 37.53955993 43.3616573 35.19921875 41.79296875 C33.65382759 39.48243278 33.69272636 38.06729369 33.8125 35.3125 C33.85310547 34.10013672 33.85310547 34.10013672 33.89453125 32.86328125 C33.92933594 32.24839844 33.96414063 31.63351562 34 31 C33.48050781 31.45890625 32.96101563 31.9178125 32.42578125 32.390625 C21.81172492 41.72942503 21.81172492 41.72942503 19.08984375 42.63671875 C15.84651198 44.75246228 14.83161566 48.07173075 13.3125 51.5 C8.90536863 60.83914529 3.04517896 70.1897597 -7 74 C-11.68435698 74.56800334 -16.08197195 75.07136032 -20.30078125 72.71484375 C-22.60089099 70.39358358 -22.48150743 68.30390138 -22.53125 65.1328125 C-21.4365124 60.73776304 -18.60644654 58.40095 -14.93359375 55.97265625 C-13.77988281 55.34230469 -12.62617188 54.71195312 -11.4375 54.0625 C-10.82197266 53.71461426 -10.20644531 53.36672852 -9.57226562 53.00830078 C-6.70260776 51.39912604 -3.87420338 49.94590901 -0.84765625 48.64453125 C5.54428629 45.7948998 8.10515219 42.97195633 10.6875 36.625 C11.52027465 34.42935337 12.27445981 32.23478625 13 30 C12.42507813 30.74765625 11.85015625 31.4953125 11.2578125 32.265625 C9.25069755 34.69638705 7.25868222 36.70166471 4.875 38.75 C4.19179688 39.34296875 3.50859375 39.9359375 2.8046875 40.546875 C-0.48722769 43.19750801 -2.80209002 43.419791 -7 43 C-9.47508597 41.03793185 -10.79583629 39.71338598 -11.671875 36.65234375 C-11.95430439 26.83792252 -8.01679864 18.96609956 -3.99755859 10.24804688 C-2.50566991 6.88600306 -1.25137171 3.45804925 0 0 Z " fill="#7196A8" transform="translate(326,260)"/>
<path d="M0 0 C0.99 0.66 1.98 1.32 3 2 C4.10166613 8.45119806 3.55900872 14.73768091 0.18359375 20.390625 C-3.76729632 25.76279235 -9.684615 28.35615477 -16 30 C-24.00516618 30.91697207 -30.72775601 30.4006828 -38.01171875 26.875 C-40.09559426 25.79860056 -40.09559426 25.79860056 -43 26 C-48.37667043 35.40917326 -52.78218027 48.0406156 -51 59 C-49.6351132 62.40241824 -49.6351132 62.40241824 -48 65 C-48 65.66 -48 66.32 -48 67 C-42.83583277 68.72138908 -37.6388582 69.14238111 -32.5546875 66.94140625 C-23.4146522 61.22501129 -17.79488937 52.32913159 -15.25 41.9375 C-15.1675 41.298125 -15.085 40.65875 -15 40 C-9.58461538 39.63076923 -9.58461538 39.63076923 -6.625 41.5 C-6.08875 41.995 -5.5525 42.49 -5 43 C-5.33 45.31 -5.66 47.62 -6 50 C-6.66 50 -7.32 50 -8 50 C-8.185625 51.175625 -8.37125 52.35125 -8.5625 53.5625 C-9.73457046 58.95231308 -12.0199317 63.67214562 -14.43579102 68.59399414 C-16.26504865 72.33170018 -17.77773919 76.02154105 -19 80 C-16.36 80.33 -13.72 80.66 -11 81 C-11 81.99 -11 82.98 -11 84 C-14.96 83.67 -18.92 83.34 -23 83 C-23.66 84.65 -24.32 86.3 -25 88 C-29.08102132 93.9240632 -34.75302717 98.46363895 -41 102 C-43.84375 102.2265625 -43.84375 102.2265625 -46 102 C-42.22344915 96.92309831 -38.37627898 91.91743405 -34.41796875 86.98046875 C-32.82155649 84.95659407 -32.82155649 84.95659407 -32 82 C-34.31 82 -36.62 82 -39 82 C-38.67 81.34 -38.34 80.68 -38 80 C-35.36 80 -32.72 80 -30 80 C-29.7525 79.175 -29.505 78.35 -29.25 77.5 C-27.81295189 73.47626529 -25.97645485 69.78020976 -24 66 C-24.66386719 66.48210937 -25.32773437 66.96421875 -26.01171875 67.4609375 C-26.89472656 68.09257812 -27.77773438 68.72421875 -28.6875 69.375 C-29.55761719 70.00148438 -30.42773438 70.62796875 -31.32421875 71.2734375 C-37.4104986 75.20064289 -42.86755444 75.84034705 -50 75 C-55.81933592 72.19809752 -59.85131771 67.78965699 -62.3125 61.8125 C-64.2368043 51.14135795 -62.98134439 41.41474492 -57.80859375 31.84375 C-53.19202949 24.29730303 -53.19202949 24.29730303 -52.78125 15.98046875 C-54.35305373 13.68578358 -55.96499434 11.88461263 -58 10 C-59.35439668 7.29120665 -59.06501451 4.99066732 -59 2 C-58.01 1.67 -57.02 1.34 -56 1 C-55.66226562 1.68707031 -55.32453125 2.37414062 -54.9765625 3.08203125 C-54.53054688 3.98308594 -54.08453125 4.88414062 -53.625 5.8125 C-53.18414062 6.70582031 -52.74328125 7.59914062 -52.2890625 8.51953125 C-50.98133095 11.14556381 -50.98133095 11.14556381 -49 14 C-45.4788127 12.49890428 -43.26638491 10.43108655 -40.5625 7.75 C-32.36995662 0.3456605 -23.9488613 -3.30604165 -13 -4.125 C-11.92286743 -4.21297852 -11.92286743 -4.21297852 -10.82397461 -4.30273438 C-5.82811629 -4.4956292 -3.54649261 -3.43249821 0 0 Z " fill="#7399AC" transform="translate(316,228)"/>
<path d="M0 0 C0.68097748 -0.00412903 1.36195496 -0.00825806 2.06356812 -0.01251221 C11.23862688 -0.03777447 19.59613026 1.04599223 28.4375 3.5 C24.86857906 9.1565608 24.86857906 9.1565608 21.31716919 10.0088501 C18.67252236 10.12814138 16.08598555 10.06862546 13.44140625 9.9453125 C12.4574437 9.92733612 11.47348114 9.90935974 10.45970154 9.89083862 C7.30502332 9.830887 4.15341747 9.7317318 1 9.625 C-19.36100813 8.98616033 -38.38493419 10.33868592 -57.75 17.1875 C-58.73991943 17.5292627 -59.72983887 17.87102539 -60.74975586 18.22314453 C-76.23763643 23.71463018 -90.2919314 30.81597027 -103.5625 40.5 C-104.12662598 40.90863281 -104.69075195 41.31726563 -105.27197266 41.73828125 C-127.344166 57.85590722 -144.24807507 77.71382846 -157.5625 101.5 C-157.91054687 102.12068359 -158.25859375 102.74136719 -158.6171875 103.38085938 C-167.44928605 119.40148926 -172.718611 136.48258709 -175.5625 154.5 C-175.72878906 155.24918701 -175.89507812 155.99837402 -176.06640625 156.77026367 C-178.12604618 166.41838948 -177.91944573 176.14745906 -177.94335938 185.96899414 C-178.01368834 203.19783287 -178.01368834 203.19783287 -182.5625 211.5 C-183.2225 211.17 -183.8825 210.84 -184.5625 210.5 C-185.75059717 205.60926145 -185.75333 200.68795107 -185.80078125 195.68359375 C-185.8105751 194.83860321 -185.82036896 193.99361267 -185.83045959 193.12301636 C-185.98947995 175.8544147 -186.14120205 159.27150221 -181.5625 142.5 C-181.084573 140.57357626 -180.60945041 138.64645522 -180.13671875 136.71875 C-179.63705286 134.74891953 -179.13323366 132.78013732 -178.625 130.8125 C-178.3966748 129.92667236 -178.16834961 129.04084473 -177.93310547 128.12817383 C-176.41739507 122.62942652 -174.34595867 117.76394904 -171.70239258 112.71264648 C-170.38919255 110.16359275 -169.36967542 107.56265359 -168.375 104.875 C-165.07244351 96.82501857 -160.3560261 89.72349029 -155.5625 82.5 C-155.17465332 81.90429199 -154.78680664 81.30858398 -154.38720703 80.69482422 C-136.18553969 52.91003 -108.170813 29.38396431 -77.5625 16.5 C-75.89503317 15.68914342 -74.22832455 14.87672514 -72.5625 14.0625 C-66.80296912 11.41039979 -60.98577698 9.88621519 -54.84765625 8.39453125 C-51.72871486 7.67408527 -51.72871486 7.67408527 -49.71923828 6.5246582 C-35.65645223 -0.15651828 -15.35490626 0.00220328 0 0 Z " fill="#F8FD72" transform="translate(313.5625,131.5)"/>
<path d="M0 0 C7.43476251 3.58808838 14.31258734 7.19999322 19.16015625 14.05078125 C19.16015625 14.71078125 19.16015625 15.37078125 19.16015625 16.05078125 C18.50015625 16.05078125 17.84015625 16.05078125 17.16015625 16.05078125 C17.16015625 15.39078125 17.16015625 14.73078125 17.16015625 14.05078125 C16.43699219 13.77105469 15.71382813 13.49132812 14.96875 13.203125 C12.31614843 12.11478361 9.79154594 10.8838723 7.22265625 9.61328125 C1.65776668 7.03147534 -3.84338129 5.85106357 -9.87109375 4.82421875 C-13.0552913 3.99465149 -13.6264704 3.27583467 -15.83984375 1.05078125 C-18.79505452 0.25610074 -18.79505452 0.25610074 -22.02734375 -0.13671875 C-23.11402344 -0.29527344 -24.20070313 -0.45382813 -25.3203125 -0.6171875 C-26.15175781 -0.72675781 -26.98320312 -0.83632812 -27.83984375 -0.94921875 C-27.56366842 0.99152986 -27.56366842 0.99152986 -26.83984375 3.05078125 C-23.21040171 5.47040928 -21.04235569 5.40705022 -16.71484375 5.73828125 C-6.76834808 6.72350395 5.65894711 10.11022949 13.16015625 17.05078125 C13.16015625 17.71078125 13.16015625 18.37078125 13.16015625 19.05078125 C7.98994359 20.77418547 2.56427245 20.18137554 -2.83984375 20.05078125 C-3.68160156 20.03402344 -4.52335937 20.01726562 -5.390625 20 C-11.25005714 19.65532752 -16.42750455 18.00483207 -21.94946289 16.06201172 C-26.47883201 14.4713032 -30.99878388 13.17282376 -35.65234375 11.98828125 C-43.52268469 9.94446496 -51.0019174 7.54427571 -57.83984375 3.05078125 C-58.76796875 2.53515625 -59.69609375 2.01953125 -60.65234375 1.48828125 C-61.37421875 1.01390625 -62.09609375 0.53953125 -62.83984375 0.05078125 C-62.83984375 -0.60921875 -62.83984375 -1.26921875 -62.83984375 -1.94921875 C-63.41734375 -2.01109375 -63.99484375 -2.07296875 -64.58984375 -2.13671875 C-67.76432858 -3.28306049 -68.9683295 -5.20878717 -70.83984375 -7.94921875 C-70.83984375 -8.60921875 -70.83984375 -9.26921875 -70.83984375 -9.94921875 C-71.49984375 -9.94921875 -72.15984375 -9.94921875 -72.83984375 -9.94921875 C-71.83984375 -12.94921875 -71.83984375 -12.94921875 -70.20703125 -14.11328125 C-49.50734145 -21.4230727 -18.78153534 -8.75305946 0 0 Z " fill="#FD594F" transform="translate(415.83984375,153.94921875)"/>
<path d="M0 0 C3.375 0.3125 3.375 0.3125 7 1 C9 4 9 4 8.75 6.9375 C8.09433729 9.6147894 7.25155351 11.58032989 6 14 C6 14.99 6 15.98 6 17 C6.52787109 16.12988281 6.52787109 16.12988281 7.06640625 15.2421875 C11.19395357 8.71139462 15.59828223 4.26781185 22 0 C25.75698557 -0.37569856 26.75366476 -0.1642235 30 2 C30.29296875 4.05859375 30.29296875 4.05859375 30.1875 6.4375 C30.14689453 7.61119141 30.14689453 7.61119141 30.10546875 8.80859375 C30.07066406 9.53175781 30.03585937 10.25492187 30 11 C30 11.99 30 12.98 30 14 C30.63615234 13.11248047 30.63615234 13.11248047 31.28515625 12.20703125 C39.8747698 0.6346508 39.8747698 0.6346508 47.25 -0.5 C50 0 50 0 51.875 1.125 C53.54325244 3.90542073 53.26847646 5.77082479 53 9 C52.08079847 11.76617523 50.87179847 14.3678699 49.625 17 C46.40779015 23.95754325 43.92344298 30.30464187 43 38 C51.69684821 35.62813231 56.20227288 27.48530665 60.421875 20.16015625 C60.94265625 19.44730469 61.4634375 18.73445313 62 18 C62.99 18 63.98 18 65 18 C61.59934566 27.11630811 55.1613066 36.55912893 47 42 C43.35736822 43.21421059 40.81087656 43.56457431 37 43 C34.5 41.0625 34.5 41.0625 33 38 C32.25058992 30.50589916 36.04209463 23.64668853 39 17 C39.78015895 15.08711026 40.55181935 13.17071864 41.3125 11.25 C41.63863281 10.43015625 41.96476562 9.6103125 42.30078125 8.765625 C42.64689453 7.89164062 42.64689453 7.89164062 43 7 C37.13511441 9.877801 33.99187415 12.97078991 30.3125 18.3125 C29.62317383 19.2705957 29.62317383 19.2705957 28.91992188 20.24804688 C22.89705407 28.68207702 22.89705407 28.68207702 19.75 38.4375 C19.60046875 39.30246094 19.4509375 40.16742188 19.296875 41.05859375 C19.19890625 41.69925781 19.1009375 42.33992188 19 43 C16.125 42.6875 16.125 42.6875 13 42 C10.49149994 38.2372499 10.39753819 35.35318235 11 31 C12.0581643 27.64856588 13.4655131 24.50054684 14.9375 21.3125 C18.19592683 14.3899509 18.19592683 14.3899509 20 7 C13.24368284 11.09650265 9.47546863 16.53098631 5 23 C4.39285156 23.8765625 3.78570312 24.753125 3.16015625 25.65625 C-0.4695845 31.26504256 -2.18244358 36.37497384 -3 43 C-7.7734375 43.125 -7.7734375 43.125 -9.8125 42 C-11.76403265 38.71320817 -11.23991304 35.7786303 -11 32 C-10.67 31.34 -10.34 30.68 -10 30 C-10.99 29.67 -11.98 29.34 -13 29 C-12.48050781 28.16339844 -11.96101563 27.32679688 -11.42578125 26.46484375 C-6.27294601 17.94189601 -2.78236479 9.5510022 0 0 Z " fill="#7195A7" transform="translate(371,260)"/>
<path d="M0 0 C5.68526482 -0.33442734 9.17881632 -0.29870463 14 3 C16.32962299 3.72800718 18.64228173 4.37712762 21 5 C29.69238271 7.35706145 37.26981288 10.35259291 45 15 C45 15.66 45 16.32 45 17 C45.99 17.33 46.98 17.66 48 18 C48.9140625 19.63671875 48.9140625 19.63671875 49.625 21.6875 C49.86476563 22.35136719 50.10453125 23.01523438 50.3515625 23.69921875 C52.12877458 30.00510982 52.306242 36.40227659 52.61328125 42.90625 C52.72503159 45.10420741 52.83761227 47.30212272 52.95092773 49.5 C53.03877029 51.21703125 53.03877029 51.21703125 53.12838745 52.96875 C53.98258356 69.35209832 54.83620407 85.72197474 56.9375 102 C57.15563354 103.79147461 57.15563354 103.79147461 57.37817383 105.61914062 C57.60670044 107.23079102 57.60670044 107.23079102 57.83984375 108.875 C57.96738037 109.77992188 58.09491699 110.68484375 58.22631836 111.6171875 C59.18555674 114.5714843 60.80284401 115.85777981 63 118 C63.0825 119.134375 63.165 120.26875 63.25 121.4375 C63.96066247 130.69344533 71.89823751 139.44060532 78 146 C75.03824877 145.38722388 73.61941217 144.74627478 71 143 C72.65 145.31 74.3 147.62 76 150 C74.68 150.33 73.36 150.66 72 151 C71.01 149.35 70.02 147.7 69 146 C69.99 149.465 69.99 149.465 71 153 C70.01 153.33 69.02 153.66 68 154 C67.67 153.34 67.34 152.68 67 152 C66.34 153.32 65.68 154.64 65 156 C64.01 156 63.02 156 62 156 C61.67 154.68 61.34 153.36 61 152 C60.67 153.32 60.34 154.64 60 156 C59.34 156 58.68 156 58 156 C58.495 149.565 58.495 149.565 59 143 C58.34 143 57.68 143 57 143 C57.04125 144.2375 57.0825 145.475 57.125 146.75 C57.13658291 150.01637962 56.8568702 152.2146947 55 155 C54.34 155 53.68 155 53 155 C53.33 153.741875 53.66 152.48375 54 151.1875 C55.87960836 142.68260545 55.42791147 133.56746881 54 125 C53.67 124.67 53.34 124.34 53 124 C53.00625506 122.14537578 53.05808926 120.29092739 53.125 118.4375 C53.18871626 111.52074588 52.4709296 104.85258018 51.5625 98 C49.67370897 83.65658229 48.84985724 69.48491522 48.39208984 55.0300293 C48.78092604 42.15630864 48.78092604 42.15630864 46 30 C45.67 32.64 45.34 35.28 45 38 C44.67 38 44.34 38 44 38 C44 34.7 44 31.4 44 28 C44.66 28 45.32 28 46 28 C43.90750328 21.46094774 40.95202761 18.37697375 35 15 C25.88393225 10.47436921 17.50582976 8.27194583 7.36328125 7.51953125 C3.92302918 6.9881102 2.33064592 6.5666607 0 4 C0 2.68 0 1.36 0 0 Z " fill="#494849" transform="translate(388,153)"/>
<path d="M0 0 C3.856875 -0.061875 7.71375 -0.12375 11.6875 -0.1875 C13.4986731 -0.22846802 13.4986731 -0.22846802 15.34643555 -0.27026367 C16.308479 -0.27775635 17.27052246 -0.28524902 18.26171875 -0.29296875 C19.24100342 -0.3086792 20.22028809 -0.32438965 21.22924805 -0.34057617 C25.43918614 0.17690234 28.04545791 2.04545791 31 5 C31.47325628 10.0165166 30.97071449 12.91526758 28 17 C28.825 17.680625 29.65 18.36125 30.5 19.0625 C33 22 33 22 33.625 25.5 C32.84589045 29.86301349 31.43408422 31.28467759 28 34 C24.82212459 35.0592918 22.57411057 35.11458939 19.23828125 35.09765625 C17.72681519 35.09390991 17.72681519 35.09390991 16.18481445 35.09008789 C14.2680188 35.07643188 14.2680188 35.07643188 12.3125 35.0625 C6.2178125 35.0315625 6.2178125 35.0315625 0 35 C0 23.45 0 11.9 0 0 Z " fill="#7199AC" transform="translate(265,343)"/>
<path d="M0 0 C2.16070464 2.16070464 3.43303362 4.38838937 5 7 C5.66 7.66 6.32 8.32 7 9 C6.67102815 15.73029155 3.4201912 22.12356008 0.625 28.125 C0.23828125 28.97964844 -0.1484375 29.83429688 -0.546875 30.71484375 C-2.28047765 34.50200928 -4.06236853 38.19998717 -6.171875 41.79296875 C-7.77380448 44.6031912 -8.8788446 47.12787983 -9.875 50.1875 C-13.42224389 60.31654409 -18.80444874 69.64063815 -24 79 C-29.40839975 75.83410746 -33.04174791 71.82485166 -37 67 C-36.01 65.02 -35.02 63.04 -34 61 C-33.34 61 -32.68 61 -32 61 C-31.72397949 60.28191162 -31.44795898 59.56382324 -31.16357422 58.82397461 C-30.02785425 56.0676018 -28.75685125 53.46122529 -27.3828125 50.81640625 C-26.86396484 49.81673828 -26.34511719 48.81707031 -25.81054688 47.78710938 C-25.25431641 46.72298828 -24.69808594 45.65886719 -24.125 44.5625 C-23.55072266 43.46099609 -22.97644531 42.35949219 -22.38476562 41.22460938 C-15.13455484 27.36741571 -7.6073881 13.66359512 0 0 Z " fill="#FE554D" transform="translate(342,144)"/>
<path d="M0 0 C2.97 0 5.94 0 9 0 C13.01626776 7.80662046 16.83819335 15.67985336 20.4375 23.6875 C20.79134766 24.46528809 21.14519531 25.24307617 21.50976562 26.04443359 C21.83525391 26.7761377 22.16074219 27.5078418 22.49609375 28.26171875 C22.93199829 29.23564575 22.93199829 29.23564575 23.37670898 30.22924805 C24 32 24 32 24 35 C21.36 35 18.72 35 16 35 C15.01 33.02 14.02 31.04 13 29 C7.39 29 1.78 29 -4 29 C-4.99 30.98 -5.98 32.96 -7 35 C-9.97 35 -12.94 35 -16 35 C-14.11994266 28.98381653 -11.93937169 23.57467045 -9 18 C-8.34 18 -7.68 18 -7 18 C-6.89816406 17.31550781 -6.79632813 16.63101562 -6.69140625 15.92578125 C-5.86230008 12.41730374 -4.4827768 9.44244474 -2.9375 6.1875 C-2.11572266 4.44533203 -2.11572266 4.44533203 -1.27734375 2.66796875 C-0.85582031 1.78753906 -0.43429687 0.90710938 0 0 Z " fill="#749AAC" transform="translate(317,343)"/>
<path d="M0 0 C3.3 0 6.6 0 10 0 C11.84225541 4.01606332 13.67499702 8.03629346 15.49926758 12.06054688 C16.12040419 13.4272737 16.74406821 14.79285496 17.37036133 16.15722656 C18.27321063 18.1252513 19.16671255 20.09729729 20.05859375 22.0703125 C20.59798584 23.25383301 21.13737793 24.43735352 21.69311523 25.65673828 C22.9289128 28.81814532 23.58639134 31.64194485 24 35 C21.36 35 18.72 35 16 35 C15.01 32.69 14.02 30.38 13 28 C7.72 28 2.44 28 -3 28 C-4.98 31.465 -4.98 31.465 -7 35 C-9.64 35 -12.28 35 -15 35 C-13.5703031 31.3677074 -12.04781748 27.78851226 -10.46875 24.21875 C-9.98792969 23.12949219 -9.50710938 22.04023438 -9.01171875 20.91796875 C-7.5 17.5 -7.5 17.5 -5.98828125 14.08203125 C-5.50746094 12.99277344 -5.02664063 11.90351563 -4.53125 10.78125 C-4.09361328 9.79189453 -3.65597656 8.80253906 -3.20507812 7.78320312 C-2.08902868 5.20561729 -1.02869205 2.61349836 0 0 Z " fill="#7297AA" transform="translate(432,343)"/>
<path d="M0 0 C2.97 0 5.94 0 9 0 C9 4.62 9 9.24 9 14 C13.95 13.67 18.9 13.34 24 13 C24.33 8.71 24.66 4.42 25 0 C27.64 0 30.28 0 33 0 C33 11.55 33 23.1 33 35 C30.36 35 27.72 35 25 35 C24.67 30.38 24.34 25.76 24 21 C19.05 20.67 14.1 20.34 9 20 C9 24.95 9 29.9 9 35 C6.03 35 3.06 35 0 35 C0 23.45 0 11.9 0 0 Z " fill="#7499AB" transform="translate(379,343)"/>
<path d="M0 0 C5.41538462 -0.36923077 5.41538462 -0.36923077 8.375 1.5 C8.91125 1.995 9.4475 2.49 10 3 C9.67 5.31 9.34 7.62 9 10 C8.34 10 7.68 10 7 10 C6.7215625 11.7634375 6.7215625 11.7634375 6.4375 13.5625 C5.26542954 18.95231308 2.9800683 23.67214562 0.56420898 28.59399414 C-1.26504865 32.33170018 -2.77773919 36.02154105 -4 40 C-1.36 40.33 1.28 40.66 4 41 C4 41.99 4 42.98 4 44 C0.04 43.67 -3.92 43.34 -8 43 C-8.99 45.475 -8.99 45.475 -10 48 C-14.08102132 53.9240632 -19.75302717 58.46363895 -26 62 C-28.84375 62.2265625 -28.84375 62.2265625 -31 62 C-27.22344915 56.92309831 -23.37627898 51.91743405 -19.41796875 46.98046875 C-17.82155649 44.95659407 -17.82155649 44.95659407 -17 42 C-19.31 42 -21.62 42 -24 42 C-23.67 41.34 -23.34 40.68 -23 40 C-20.36 40 -17.72 40 -15 40 C-14.7525 39.175 -14.505 38.35 -14.25 37.5 C-12.81295189 33.47626529 -10.97645485 29.78020976 -9 26 C-9.99 26.66 -10.98 27.32 -12 28 C-12.99 27.67 -13.98 27.34 -15 27 C-14.32453125 26.16597656 -13.6490625 25.33195312 -12.953125 24.47265625 C-6.99397253 17.00061601 -1.26380763 9.79450917 0 0 Z " fill="#7398AB" transform="translate(301,268)"/>
<path d="M0 0 C0.928125 0.495 1.85625 0.99 2.8125 1.5 C2.1525 3.15 1.4925 4.8 0.8125 6.5 C-4.1375 6.5 -9.0875 6.5 -14.1875 6.5 C-14.8475 8.15 -15.5075 9.8 -16.1875 11.5 C-15.31867188 11.67015625 -14.44984375 11.8403125 -13.5546875 12.015625 C-1.86237826 14.47441039 -1.86237826 14.47441039 2.8125 18.5 C4.36274464 21.60048928 4.10242015 24.07894218 3.8125 27.5 C1.13147363 32.21860641 -2.07586012 33.90784987 -7.1875 35.5 C-13.48361401 36.32664806 -18.49669489 35.24378103 -24.1875 32.5 C-25.1875 29.5 -25.1875 29.5 -24.25 27.3125 C-23.7240625 26.4153125 -23.7240625 26.4153125 -23.1875 25.5 C-22.218125 25.83 -21.24875 26.16 -20.25 26.5 C-15.56516639 27.84808477 -9.66787043 28.74018522 -5.1875 26.5 C-5.5175 25.18 -5.8475 23.86 -6.1875 22.5 C-7.1775 22.231875 -8.1675 21.96375 -9.1875 21.6875 C-10.52256359 21.29754228 -11.85579212 20.90126791 -13.1875 20.5 C-14.22970703 20.190625 -14.22970703 20.190625 -15.29296875 19.875 C-19.89994908 18.35374571 -22.72263013 16.91622519 -25.1875 12.5 C-25.99955184 8.25928484 -25.43103013 6.86181619 -23 3.25 C-16.8865446 -2.72760084 -7.77097775 -3.33946294 0 0 Z " fill="#779BAC" transform="translate(369.1875,343.5)"/>
<path d="M0 0 C0.75539063 0.00644531 1.51078125 0.01289063 2.2890625 0.01953125 C4.375 0.1875 4.375 0.1875 7.375 1.1875 C9.43655601 3.86752281 9.36935798 5.26648834 9.125 8.6875 C7.96060546 14.12134121 6.37713874 16.51428824 1.9375 19.875 C1.15503906 20.47699219 0.37257813 21.07898438 -0.43359375 21.69921875 C-6.24214778 25.64406561 -13.88547909 24.61450238 -20.625 24.1875 C-23.3525008 23.46686999 -25.18023007 22.61858483 -27.625 21.1875 C-24.91788244 12.25401206 -17.3127976 6.80505196 -9.625 2.1875 C-6.27846102 0.61021651 -3.69467404 -0.06983061 0 0 Z " fill="#FBFDFD" transform="translate(303.625,228.8125)"/>
<path d="M0 0 C2.91385442 2.37174197 5.69021426 4.68184167 8.3125 7.375 C18.52338422 17.34842179 29.88341445 23.22187438 43.20703125 27.96875 C45.68152948 28.88241088 48.08029184 29.89022666 50.5 30.9375 C66.52796818 37.39462731 83.56136579 40.12284895 100.75 40.25 C101.70874023 40.25942627 102.66748047 40.26885254 103.65527344 40.27856445 C109.98543499 40.24961221 115.84510596 39.47247874 122 38 C122 39.32 122 40.64 122 42 C114.45839652 45.02466437 107.83571514 45.50879091 99.75 45.4375 C98.51000244 45.42775146 97.27000488 45.41800293 95.99243164 45.40795898 C65.16899852 44.82150863 32.34384462 34.13587223 8 15 C7.17628906 14.38253906 6.35257812 13.76507813 5.50390625 13.12890625 C-0.38406797 8.37824697 -0.38406797 8.37824697 -1.0625 4.125 C-1 1 -1 1 0 0 Z " fill="#4B4544" transform="translate(305,211)"/>
<path d="M0 0 C0 0.33 0 0.66 0 1 C-2.64 1.33 -5.28 1.66 -8 2 C-5.03 2.495 -5.03 2.495 -2 3 C-2.60908765 6.54232555 -4.00829977 8.59724102 -6.25 11.375 C-7.18779297 12.54482422 -7.18779297 12.54482422 -8.14453125 13.73828125 C-10.41478743 16.50560404 -12.68787701 19.26749101 -15 22 C-14.34 22.66 -13.68 23.32 -13 24 C-18.30999412 26.235787 -23.32186242 26.62563786 -29 26 C-32.68623011 24.38727433 -33.75355 23.369675 -36 20 C-36.50510005 15.35307958 -35.90110721 12.6747358 -33 9 C-23.6530425 1.28876006 -11.71513461 -0.23908438 0 0 Z " fill="#7AA1B4" transform="translate(286,307)"/>
<path d="M0 0 C5.75 0.75 5.75 0.75 8 3 C8.5215797 9.2054611 6.13080453 14.2510846 3.2734375 19.5859375 C0.28767921 25.24605597 -1.33870285 30.65154736 -2 37 C4.41249814 35.74878085 7.10273324 31.82136094 11 27 C11.66 26.34 12.32 25.68 13 25 C13.75 26.75 13.75 26.75 14 29 C12.5 30.75 12.5 30.75 10 33 C8.23820284 35.04727355 6.50649525 37.11717617 4.78125 39.1953125 C2.04312391 41.96946656 -0.15145032 42.89393129 -4 43.375 C-7.7671574 42.90410533 -8.64163543 41.90831934 -11 39 C-13.86624903 28.98479263 -8.07717549 19.09706176 -3.99755859 10.24804688 C-2.50566991 6.88600306 -1.25137171 3.45804925 0 0 Z " fill="#7298AA" transform="translate(326,260)"/>
<path d="M0 0 C0.99 0.66 1.98 1.32 3 2 C4.10166613 8.45119806 3.55900872 14.73768091 0.18359375 20.390625 C-3.75595905 25.74737666 -9.6892539 28.38697662 -16 30 C-28.89899714 31.14101161 -28.89899714 31.14101161 -34 28 C-32.02 27.67 -30.04 27.34 -28 27 C-28.66 26.34 -29.32 25.68 -30 25 C-29.20335937 24.96261719 -28.40671875 24.92523438 -27.5859375 24.88671875 C-19.10881576 24.36076594 -14.01795929 23.23288641 -8 17 C-7.34 17 -6.68 17 -6 17 C-4.03736764 11.4584498 -3.98396143 7.79141983 -5 2 C-10.445 1.505 -10.445 1.505 -16 1 C-13.65111345 -1.91261932 -12.20476538 -2.94043189 -8.5625 -4 C-4.209279 -4 -3.05931744 -2.9743364 0 0 Z " fill="#7B9EB0" transform="translate(316,228)"/>
<path d="M0 0 C0.66 0 1.32 0 2 0 C1.8595224 0.61170547 1.7190448 1.22341095 1.5743103 1.85365295 C0.28522035 7.80116321 -0.31918753 13.41907598 -0.3359375 19.49609375 C-0.3425943 20.36911636 -0.3492511 21.24213898 -0.35610962 22.14161682 C-0.36616261 23.97939984 -0.37092894 25.81721881 -0.37060547 27.6550293 C-0.37494113 30.40022638 -0.41123545 33.14376197 -0.44921875 35.88867188 C-0.51012352 45.96275037 0.25928851 55.27605562 2.68399048 65.07774353 C4.08543416 70.74369751 4.08543416 70.74369751 3 74 C-7.59375441 59.18330569 -9.9753492 42.28466426 -7.06811523 24.59375 C-5.95502615 18.47068906 -4.40363934 12.74783321 -2 7 C-1.27551415 4.678962 -0.63577756 2.34748639 0 0 Z " fill="#EAF879" transform="translate(144,352)"/>
<path d="M0 0 C11.06180435 13.81884981 15.49721008 31.65954376 14.22753906 49.07958984 C13.34575637 56.52176004 9.05474388 61.75991551 4 67 C3 65 3 65 3.7421875 62.57421875 C4.11601562 61.62160156 4.48984375 60.66898437 4.875 59.6875 C10.51946131 45.2211009 8.97612639 28.80383469 2.9921875 14.609375 C2.08626286 12.82368448 2.08626286 12.82368448 0 12 C-0.4021875 13.11375 -0.4021875 13.11375 -0.8125 14.25 C-1.94674778 16.87667906 -3.25238013 18.75921617 -5 21 C-4.04296522 13.61394333 -2.95870791 6.85882288 0 0 Z " fill="#EFFC78" transform="translate(180,343)"/>
<path d="M0 0 C-0.73845304 6.64607736 -5.2932055 10.60597467 -10 15 C-14.04204394 17.73264943 -18.14195986 18.56488839 -23 18 C-25 16 -25 16 -25.5 12.6875 C-25 9 -25 9 -22.75 6.3125 C-16.30289386 1.68773503 -7.87355338 -0.71577758 0 0 Z " fill="#F9FCFD" transform="translate(283,311)"/>
<path d="M0 0 C0 0.66 0 1.32 0 2 C-2.85634223 3.47375104 -5.72246733 4.91878924 -8.609375 6.33203125 C-10.68181958 7.35154028 -12.73898985 8.40393937 -14.765625 9.51171875 C-24.21944534 14.22512346 -33.71606565 13.52904912 -44 13 C-45.24652344 12.94328125 -46.49304688 12.8865625 -47.77734375 12.828125 C-52.64609687 12.51517672 -56.5039354 11.97859015 -61 10 C-61 9.67 -61 9.34 -61 9 C-60.04867187 8.98582031 -59.09734375 8.97164063 -58.1171875 8.95703125 C-47.80271252 8.65645025 -37.72992352 7.32437329 -27.5625 5.625 C-25.66250244 5.31139526 -25.66250244 5.31139526 -23.72412109 4.99145508 C-17.06172132 3.84549434 -10.57708644 2.47165882 -4.08959961 0.56396484 C-2 0 -2 0 0 0 Z " fill="#EBF87F" transform="translate(254,447)"/>
<path d="M0 0 C0.78310547 0.48919922 0.78310547 0.48919922 1.58203125 0.98828125 C1.58203125 1.31828125 1.58203125 1.64828125 1.58203125 1.98828125 C-6.04296875 1.11328125 -6.04296875 1.11328125 -9.41796875 -0.01171875 C-13.60098397 -0.27412632 -17.79011601 -0.24324888 -21.98046875 -0.26171875 C-23.12322266 -0.28234375 -24.26597656 -0.30296875 -25.44335938 -0.32421875 C-34.51862669 -0.36572941 -41.856627 1.07063493 -49.91796875 5.23828125 C-51.07296875 5.81578125 -52.22796875 6.39328125 -53.41796875 6.98828125 C-54.07796875 6.65828125 -54.73796875 6.32828125 -55.41796875 5.98828125 C-39.75574005 -9.95080503 -18.97591165 -11.26590902 0 0 Z " fill="#E7F87B" transform="translate(267.41796875,396.01171875)"/>
<path d="M0 0 C3.57069865 3.29160956 6.17153102 6.90162308 8.8125 10.9375 C9.23208984 11.54529297 9.65167969 12.15308594 10.08398438 12.77929688 C11.85573514 15.48508429 12.99500671 17.42493929 13.0234375 20.69921875 C11.0415735 25.15463057 7.13810108 27.63239519 3 30 C0.0625 30.1875 0.0625 30.1875 -3 29 C-3.85464844 28.67515625 -4.70929688 28.3503125 -5.58984375 28.015625 C-8.07957525 27.05185797 -10.54303514 26.04396728 -13 25 C-13.27972656 25.61488281 -13.55945313 26.22976563 -13.84765625 26.86328125 C-15.90333618 30.67499962 -18.96205596 32.65401865 -23 34 C-29.07583783 34.54379271 -33.70377384 34.34498494 -39 31 C-39 30.34 -39 29.68 -39 29 C-38.43152344 29.16113281 -37.86304688 29.32226562 -37.27734375 29.48828125 C-34.97120841 30.00646947 -32.92295898 30.16704542 -30.5625 30.1875 C-29.45068359 30.20876953 -29.45068359 30.20876953 -28.31640625 30.23046875 C-22.96004085 29.69754201 -20.1762829 27.52784401 -16.75 23.5 C-16.06421875 22.7059375 -15.3784375 21.911875 -14.671875 21.09375 C-12.96716253 19.10819046 -12.96716253 19.10819046 -12 17 C-11.01 17 -10.02 17 -9 17 C-9.66 15.02 -10.32 13.04 -11 11 C-6.96189555 12.34603482 -5.52704924 14.65336723 -3 18 C-3 18.66 -3 19.32 -3 20 C-5.31 20 -7.62 20 -10 20 C-8.84472689 23.46581934 -8.36913774 23.67870505 -5.25 25.25 C-2.65147623 26.45430691 -1.20652018 27 1.6875 27 C4.55860177 25.75844248 6.66697309 24.06639526 9 22 C8.48802631 16.70147865 6.65644258 13.18295647 3.9375 8.75 C0 2.23461538 0 2.23461538 0 0 Z " fill="#E5F789" transform="translate(213,253)"/>
<path d="M0 0 C5.68526482 -0.33442734 9.17881632 -0.29870463 14 3 C16.32962299 3.72800718 18.64228173 4.37712762 21 5 C29.69238271 7.35706145 37.26981288 10.35259291 45 15 C45 15.66 45 16.32 45 17 C45.99 17.33 46.98 17.66 48 18 C49.4783226 20.95664519 49.06032783 23.74229737 49 27 C48.01 27 47.02 27 46 27 C45.505 25.700625 45.505 25.700625 45 24.375 C39.83221218 15.65435806 29.46129177 11.60534751 20 9 C15.80635595 8.21985265 11.61518306 7.83495423 7.36328125 7.51953125 C3.92302918 6.9881102 2.33064592 6.5666607 0 4 C0 2.68 0 1.36 0 0 Z " fill="#4B3D3B" transform="translate(388,153)"/>
<path d="M0 0 C-1.67196039 7.05938831 -6.25683052 14.32437917 -12.125 18.6875 C-15.38379721 20.17521177 -16.67396197 20.20106929 -20 19 C-20.66 18.67 -21.32 18.34 -22 18 C-22 16.35 -22 14.7 -22 13 C-21.34 13 -20.68 13 -20 13 C-19.78085937 12.41476562 -19.56171875 11.82953125 -19.3359375 11.2265625 C-17.57356929 8.28928215 -15.53903115 7.14841842 -12.625 5.375 C-11.66851562 4.78460938 -10.71203125 4.19421875 -9.7265625 3.5859375 C-3.56157635 0 -3.56157635 0 0 0 Z " fill="#F7FBFC" transform="translate(330,311)"/>
<path d="M0 0 C2.58594313 2.33495453 4.08434911 4.76660469 5.75 7.8125 C12.63776316 19.46740958 23.96453235 23.10557649 36 28 C36 28.33 36 28.66 36 29 C25.77894918 28.79408139 14.89949625 26.8614481 6.375 20.8125 C1.13524498 14.60752695 -0.59191187 7.99081023 0 0 Z " fill="#ECF97C" transform="translate(134,428)"/>
<path d="M0 0 C0.43828125 0.36351562 0.8765625 0.72703125 1.328125 1.1015625 C12.68080936 10.10064156 24.18561596 14.12566102 38.5 14.625 C39.87671875 14.68300781 39.87671875 14.68300781 41.28125 14.7421875 C43.52064528 14.83549564 45.76005254 14.92128185 48 15 C41.2822331 19.47851127 31.87220278 19.8990538 24 19 C13.27167272 16.22493934 6.06908502 11.30114212 0 2 C0 1.34 0 0.68 0 0 Z " fill="#E1F77D" transform="translate(208,423)"/>
<path d="M0 0 C9.57516694 2.8254591 20.42378095 7.10026517 27 15 C27.6796875 17.1796875 27.6796875 17.1796875 28 19 C27.34 19 26.68 19 26 19 C26 18.34 26 17.68 26 17 C25.28328125 16.72027344 24.5665625 16.44054687 23.828125 16.15234375 C21.08971568 15.03655542 18.4265024 13.81857788 15.75 12.5625 C11.49211976 10.60929107 7.24853257 8.96880217 2.77734375 7.578125 C1 7 1 7 -1 6 C-0.67 4.02 -0.34 2.04 0 0 Z " fill="#F96C5E" transform="translate(407,151)"/>
<path d="M0 0 C1.32 0 2.64 0 4 0 C3.46850438 7.30806476 1.84380401 14.24783068 0.11328125 21.34375 C-0.66898738 24.5634825 -1.39486796 27.78989013 -2.08203125 31.03125 C-2.25694092 31.85117432 -2.43185059 32.67109863 -2.61206055 33.51586914 C-2.94866387 35.10500212 -3.27974491 36.69531693 -3.60473633 38.28686523 C-4.77869985 43.77869985 -4.77869985 43.77869985 -7 46 C-7.41150071 39.24834013 -6.51636888 33.46369265 -4.86328125 26.9296875 C-3.47216907 21.02809496 -2.79291552 14.98838394 -2.00268555 8.9831543 C-1.82733276 7.67084839 -1.82733276 7.67084839 -1.6484375 6.33203125 C-1.54708496 5.54546143 -1.44573242 4.7588916 -1.34130859 3.94848633 C-1 2 -1 2 0 0 Z " fill="#D8F487" transform="translate(178,295)"/>
<path d="M0 0 C2.29141286 -0.05384521 4.58318188 -0.09272087 6.875 -0.125 C8.78925781 -0.15980469 8.78925781 -0.15980469 10.7421875 -0.1953125 C14 0 14 0 16 2 C16.3125 4.5 16.3125 4.5 16 7 C12.49947109 9.33368594 11.00385663 9.24221979 6.875 9.1875 C5.79992187 9.18105469 4.72484375 9.17460937 3.6171875 9.16796875 C1 9 1 9 0 8 C-0.14115161 5.32941149 -0.04247107 2.67567762 0 0 Z " fill="#F4FBFC" transform="translate(273,363)"/>
<path d="M0 0 C0.66 0 1.32 0 2 0 C1.8595224 0.61170547 1.7190448 1.22341095 1.5743103 1.85365295 C0.28522035 7.80116321 -0.31918753 13.41907598 -0.3359375 19.49609375 C-0.3425943 20.36911636 -0.3492511 21.24213898 -0.35610962 22.14161682 C-0.36616261 23.97939984 -0.37092894 25.81721881 -0.37060547 27.6550293 C-0.37494113 30.40022638 -0.41123545 33.14376197 -0.44921875 35.88867188 C-0.51012352 45.96275037 0.25928851 55.27605562 2.68399048 65.07774353 C4.08543416 70.74369751 4.08543416 70.74369751 3 74 C1.94962957 72.54165961 0.93599778 71.05683494 -0.0625 69.5625 C-0.63097656 68.73878906 -1.19945312 67.91507812 -1.78515625 67.06640625 C-3.02586865 63.93470452 -3.05068175 63.13097801 -2.56176758 59.97241211 C-1.89010269 54.72923246 -2.02028305 49.64718128 -2.2265625 44.375 C-2.289638 42.34897617 -2.35211999 40.32293379 -2.4140625 38.296875 C-2.51720817 35.14356467 -2.62535219 31.99065242 -2.74414062 28.83789062 C-2.85701916 25.76721179 -2.94939547 22.6964327 -3.0390625 19.625 C-3.07955719 18.69349121 -3.12005188 17.76198242 -3.16177368 16.80224609 C-3.32426971 10.63311329 -2.34411928 5.71004255 0 0 Z " fill="#DDF485" transform="translate(144,352)"/>
<path d="M0 0 C0.66 0.33 1.32 0.66 2 1 C2 1.99 2 2.98 2 4 C1.26394531 4.38671875 0.52789062 4.7734375 -0.23046875 5.171875 C-8.83491266 9.21659316 -8.83491266 9.21659316 -15 16 C-15.66 16 -16.32 16 -17 16 C-17 17.65 -17 19.3 -17 21 C-17.66 21.33 -18.32 21.66 -19 22 C-19.33 22.66 -19.66 23.32 -20 24 C-21.83132306 22.16867694 -21.29047035 19.6480529 -21.42578125 17.203125 C-20.79035998 13.91525716 -19.32274236 12.39392318 -17 10 C-14.65339928 8.48032275 -12.39204994 7.12006399 -9.9375 5.8125 C-4.88412776 3.05048082 -4.88412776 3.05048082 0 0 Z " fill="#7A9FB1" transform="translate(325,308)"/>
<path d="M0 0 C5.68526482 -0.33442734 9.17881632 -0.29870463 14 3 C16.32548007 3.69356423 18.65880445 4.36149212 21 5 C22.35350594 5.62469505 23.69934483 6.2716331 25 7 C25 7.66 25 8.32 25 9 C23.7625 8.855625 22.525 8.71125 21.25 8.5625 C18.4542575 8.23906228 15.68139173 7.98130513 12.87109375 7.81640625 C11.82050781 7.75324219 10.76992188 7.69007813 9.6875 7.625 C8.70136719 7.57601562 7.71523438 7.52703125 6.69921875 7.4765625 C3.62550395 6.93388058 2.15996629 6.24718583 0 4 C0 2.68 0 1.36 0 0 Z " fill="#443635" transform="translate(388,153)"/>
<path d="M0 0 C1.93719378 -0.05406122 3.87481921 -0.09282025 5.8125 -0.125 C6.89144531 -0.14820313 7.97039062 -0.17140625 9.08203125 -0.1953125 C12 0 12 0 15 2 C14.625 4.4375 14.625 4.4375 14 7 C11.23547967 8.38226016 8.9538637 8.09525387 5.875 8.0625 C4.77929688 8.05347656 3.68359375 8.04445313 2.5546875 8.03515625 C1.29011719 8.01775391 1.29011719 8.01775391 0 8 C0 5.36 0 2.72 0 0 Z " fill="#F7FAFC" transform="translate(273,349)"/>
<path d="M0 0 C3.57069865 3.29160956 6.17153102 6.90162308 8.8125 10.9375 C9.23208984 11.54529297 9.65167969 12.15308594 10.08398438 12.77929688 C11.85573514 15.48508429 12.99500671 17.42493929 13.0234375 20.69921875 C11.04226752 25.15307034 7.13877699 27.63597495 3 30 C-2.25913238 30.32869577 -7.29937187 27.24585566 -12 25 C-11.01 24.34 -10.02 23.68 -9 23 C-8.48050781 23.30035156 -7.96101562 23.60070312 -7.42578125 23.91015625 C-3.11008325 26.31022404 -3.11008325 26.31022404 1.6875 27 C4.55860177 25.75844248 6.66697309 24.06639526 9 22 C8.48802631 16.70147865 6.65644258 13.18295647 3.9375 8.75 C0 2.23461538 0 2.23461538 0 0 Z " fill="#DBF690" transform="translate(213,253)"/>
<path d="M0 0 C2.43104373 2.0735373 4.30636248 4.18557914 6.125 6.8125 C6.125 7.4725 6.125 8.1325 6.125 8.8125 C2.72187262 7.75374926 0.11146769 6.80347846 -2.875 4.8125 C-5.60957747 4.19855779 -8.30428983 3.65964777 -11.0625 3.1875 C-12.18688477 2.98640625 -12.18688477 2.98640625 -13.33398438 2.78125 C-15.17987928 2.45204581 -17.02730309 2.13143502 -18.875 1.8125 C-14.33331313 -2.72918687 -5.63183204 -2.32619149 0 0 Z " fill="#EAFB7A" transform="translate(296.875,429.1875)"/>
<path d="M0 0 C3 1 3 1 4.16796875 2.9609375 C4.50441406 3.75757813 4.84085937 4.55421875 5.1875 5.375 C5.53167969 6.16648437 5.87585938 6.95796875 6.23046875 7.7734375 C7 10 7 10 7 13 C3.37 13 -0.26 13 -4 13 C-3.05610147 8.28050734 -1.73563661 4.45228522 0 0 Z " fill="#ECF5F8" transform="translate(320,352)"/>
<path d="M0 0 C0.66 0 1.32 0 2 0 C2.67595315 1.41225926 3.34040059 2.83002905 4 4.25 C4.37125 5.03890625 4.7425 5.8278125 5.125 6.640625 C6 9 6 9 6 13 C2.7 13 -0.6 13 -4 13 C-3.40895235 8.15340923 -2.02055843 4.39251833 0 0 Z " fill="#ECF4F7" transform="translate(436,352)"/>
<path d="M0 0 C0.33 0 0.66 0 1 0 C1.53278633 4.08186677 2.04915371 8.16564655 2.5625 12.25 C2.71396484 13.40886719 2.86542969 14.56773437 3.02148438 15.76171875 C3.16005859 16.87675781 3.29863281 17.99179688 3.44140625 19.140625 C3.57232666 20.16704102 3.70324707 21.19345703 3.83813477 22.25097656 C3.98863508 24.80698497 3.79012848 26.58670023 3 29 C2.67 28.01 2.34 27.02 2 26 C1.67 28.31 1.34 30.62 1 33 C0.67 33 0.34 33 0 33 C-2.40041068 18.94045175 -2.40041068 18.94045175 -2 12 C-1.67 11.67 -1.34 11.34 -1 11 C-0.76636119 9.15108054 -0.58696365 7.29511969 -0.4375 5.4375 C-0.35371094 4.42558594 -0.26992188 3.41367188 -0.18359375 2.37109375 C-0.12300781 1.58863281 -0.06242187 0.80617187 0 0 Z " fill="#6F6F6E" transform="translate(442,237)"/>
<path d="M0 0 C3.18819752 0.33916995 5.95781049 0.98593683 9 2 C9.8125 3.875 9.8125 3.875 10 6 C9.01 7.485 9.01 7.485 8 9 C8.66 9.33 9.32 9.66 10 10 C7.6875 10.1875 7.6875 10.1875 5 10 C4.5565625 9.525625 4.113125 9.05125 3.65625 8.5625 C1.47782658 6.50738357 -0.26074587 6.30662732 -3.1875 5.8125 C-4.08855469 5.65394531 -4.98960937 5.49539062 -5.91796875 5.33203125 C-6.60503906 5.22246094 -7.29210937 5.11289063 -8 5 C-8 4.67 -8 4.34 -8 4 C-6.576875 3.566875 -6.576875 3.566875 -5.125 3.125 C-1.94788422 2.23174891 -1.94788422 2.23174891 0 0 Z " fill="#EA534E" transform="translate(398,148)"/>
<path d="M0 0 C2.64465038 3.1254959 3.84414715 6.08788267 5 10 C4.34 10 3.68 10 3 10 C2.67 10.99 2.34 11.98 2 13 C1.34 12.67 0.68 12.34 0 12 C-0.4021875 13.11375 -0.4021875 13.11375 -0.8125 14.25 C-1.94674778 16.87667906 -3.25238013 18.75921617 -5 21 C-4.04296522 13.61394333 -2.95870791 6.85882288 0 0 Z " fill="#ECFF68" transform="translate(180,343)"/>
<path d="M0 0 C3.55485817 5.33228726 3.13532611 11.17917836 3.0625 17.375 C3.05798828 18.11105469 3.05347656 18.84710938 3.04882812 19.60546875 C3.03715142 21.40368158 3.01922011 23.20185197 3 25 C2.67 25 2.34 25 2 25 C1.67 21.04 1.34 17.08 1 13 C0.67 15.97 0.34 18.94 0 22 C-0.33 22 -0.66 22 -1 22 C-1.09087891 20.62714844 -1.09087891 20.62714844 -1.18359375 19.2265625 C-1.26738281 18.03804687 -1.35117187 16.84953125 -1.4375 15.625 C-1.55931641 13.84996094 -1.55931641 13.84996094 -1.68359375 12.0390625 C-1.81084936 9.08481099 -1.81084936 9.08481099 -3 7 C-3.33 9.64 -3.66 12.28 -4 15 C-4.33 15 -4.66 15 -5 15 C-5 11.7 -5 8.4 -5 5 C-3.35 4.67 -1.7 4.34 0 4 C0 2.68 0 1.36 0 0 Z " fill="#756263" transform="translate(437,176)"/>
<path d="M0 0 C14.88858322 14.43741403 14.88858322 14.43741403 15.125 19.875 C13.54823277 24.25490897 10.67524441 26.29394537 7 29 C6.34 28.67 5.68 28.34 5 28 C7.39257812 26.38867188 7.39257812 26.38867188 9.78515625 24.77734375 C11.30345475 22.91484849 11.30345475 22.91484849 11 19.7734375 C9.79085885 15.21081894 7.80560187 12.36040624 4.9375 8.6875 C0 2.21418827 0 2.21418827 0 0 Z " fill="#DAF493" transform="translate(222,247)"/>
<path d="M0 0 C0.66 0.33 1.32 0.66 2 1 C-0.82380331 8.61490087 -5.70092385 14.92164794 -11 21 C-11.33 20.34 -11.66 19.68 -12 19 C-12.66 18.67 -13.32 18.34 -14 18 C-13.49210937 17.45472656 -12.98421875 16.90945313 -12.4609375 16.34765625 C-7.7538229 11.19098576 -3.69607775 5.92212458 0 0 Z " fill="#76A1B6" transform="translate(434,277)"/>
<path d="M0 0 C4.03810445 1.34603482 5.47295076 3.65336723 8 7 C8 7.66 8 8.32 8 9 C6.865625 9.12375 5.73125 9.2475 4.5625 9.375 C2.7990625 9.684375 2.7990625 9.684375 1 10 C0.67 10.66 0.34 11.32 0 12 C-2.90423009 13.88382493 -5.90096565 15.4670022 -9 17 C-8.59007812 16.45730469 -8.18015625 15.91460937 -7.7578125 15.35546875 C-7.21898437 14.64003906 -6.68015625 13.92460937 -6.125 13.1875 C-5.59132812 12.47980469 -5.05765625 11.77210938 -4.5078125 11.04296875 C-3.29185219 9.39543703 -2.13583859 7.70375789 -1 6 C-0.01 6 0.98 6 2 6 C1.34 4.02 0.68 2.04 0 0 Z " fill="#D4EF8D" transform="translate(202,264)"/>
<path d="M0 0 C1.32 0 2.64 0 4 0 C3.48914188 6.43681228 2.27057103 11.95942424 0 18 C-0.66 17.67 -1.32 17.34 -2 17 C-1.85941524 14.54126232 -1.71277001 12.08314825 -1.5625 9.625 C-1.52318359 8.92632812 -1.48386719 8.22765625 -1.44335938 7.5078125 C-1.11328125 2.2265625 -1.11328125 2.2265625 0 0 Z " fill="#F3FE79" transform="translate(178,295)"/>
<path d="M0 0 C0.66 0.33 1.32 0.66 2 1 C1.34 1.66 0.68 2.32 0 3 C0.66 3.33 1.32 3.66 2 4 C1.67 5.32 1.34 6.64 1 8 C1 7.01 1 6.02 1 5 C-4.7858359 8.24571282 -8.14729638 12.6654873 -12 18 C-12.99 17.67 -13.98 17.34 -15 17 C-14.67 15.68 -14.34 14.36 -14 13 C-13.67 13.66 -13.34 14.32 -13 15 C-12.64808594 14.41992188 -12.29617188 13.83984375 -11.93359375 13.2421875 C-8.50314993 7.81438345 -5.06240045 3.94867235 0 0 Z " fill="#82A6B7" transform="translate(390,262)"/>
<path d="M0 0 C0.66 0 1.32 0 2 0 C1.52433594 1.88332031 1.52433594 1.88332031 1.0390625 3.8046875 C-0.62843511 12.14217555 -0.470045 20.6541267 -0.625 29.125 C-0.66325414 30.86199716 -0.70230997 32.59897685 -0.7421875 34.3359375 C-0.83737259 38.55714705 -0.92169337 42.778445 -1 47 C-1.33 47 -1.66 47 -2 47 C-2.21861567 41.75360677 -2.41514329 36.50699903 -2.59204102 31.2590332 C-2.6551177 29.47723773 -2.72402217 27.69563796 -2.79907227 25.91430664 C-2.90647219 23.34031241 -2.9922616 20.76632166 -3.07421875 18.19140625 C-3.11157639 17.40665421 -3.14893402 16.62190216 -3.18742371 15.81336975 C-3.3414524 10.03095426 -2.1297504 5.3618879 0 0 Z " fill="#B3D992" transform="translate(144,352)"/>
<path d="M0 0 C2.71486934 3.97610786 2.22440753 8.13901977 2.125 12.75 C2.11597656 13.54277344 2.10695313 14.33554688 2.09765625 15.15234375 C2.07417012 17.10169281 2.03830137 19.05088575 2 21 C1.01 21 0.02 21 -1 21 C-1.02888146 17.68751813 -1.04675799 14.37506833 -1.0625 11.0625 C-1.07087891 10.11697266 -1.07925781 9.17144531 -1.08789062 8.19726562 C-1.09111328 7.29814453 -1.09433594 6.39902344 -1.09765625 5.47265625 C-1.10289307 4.64000244 -1.10812988 3.80734863 -1.11352539 2.94946289 C-1 1 -1 1 0 0 Z " fill="#3F3C3C" transform="translate(440,227)"/>
<path d="M0 0 C4.64073925 0.28125692 7.14028602 2.45124187 10.546875 5.33203125 C12.18304197 7.21010463 12.59909978 8.56822368 13 11 C12.34 11 11.68 11 11 11 C11 10.34 11 9.68 11 9 C10.34 8.7525 9.68 8.505 9 8.25 C5.23639093 6.68182955 1.6288576 4.85494954 -2 3 C-1.34 2.67 -0.68 2.34 0 2 C0 1.34 0 0.68 0 0 Z " fill="#F36159" transform="translate(422,159)"/>
<path d="M0 0 C0.99 0.495 0.99 0.495 2 1 C2.33 7.93 2.66 14.86 3 22 C2.34 22.33 1.68 22.66 1 23 C-0.2263757 20.54724859 -0.11415314 18.9494219 -0.09765625 16.2109375 C-0.09443359 15.26992187 -0.09121094 14.32890625 -0.08789062 13.359375 C-0.07951172 12.37453125 -0.07113281 11.3896875 -0.0625 10.375 C-0.05798828 9.38242188 -0.05347656 8.38984375 -0.04882812 7.3671875 C-0.03702145 4.9113984 -0.020554 2.45572896 0 0 Z " fill="#3A3839" transform="translate(437,188)"/>
<path d="M0 0 C0.66 0.33 1.32 0.66 2 1 C1.34 1.66 0.68 2.32 0 3 C0 3.99 0 4.98 0 6 C-2.1875 8.375 -2.1875 8.375 -5 11 C-5.928125 11.928125 -6.85625 12.85625 -7.8125 13.8125 C-8.534375 14.534375 -9.25625 15.25625 -10 16 C-10.99 15.67 -11.98 15.34 -13 15 C-12.67 14.01 -12.34 13.02 -12 12 C-11.01 11.67 -10.02 11.34 -9 11 C-7.17546194 8.97935741 -7.17546194 8.97935741 -5.4375 6.5625 C-3.69368046 4.22615683 -2.06251649 2.06251649 0 0 Z " fill="#82A3B4" transform="translate(410,263)"/>
<path d="M0 0 C0.66 0 1.32 0 2 0 C3.45659977 1.61382948 4.84048951 3.29363216 6.1875 5 C10.00870141 9.77959335 13.92936174 14.43198471 18 19 C17.34 20.32 16.68 21.64 16 23 C15.46890625 21.99582031 14.9378125 20.99164063 14.390625 19.95703125 C11.98812788 15.75054269 8.97576278 12.27982673 5.75 8.6875 C0 2.2622093 0 2.2622093 0 0 Z " fill="#CFF291" transform="translate(227,236)"/>
<path d="M0 0 C0.433125 0.495 0.86625 0.99 1.3125 1.5 C2.99740483 3.33218192 2.99740483 3.33218192 6 3 C6.33 4.32 6.66 5.64 7 7 C6.01 7.33 5.02 7.66 4 8 C3.67 7.34 3.34 6.68 3 6 C2.34 7.32 1.68 8.64 1 10 C0.01 10 -0.98 10 -2 10 C-2 7.69 -2 5.38 -2 3 C-1.34 3 -0.68 3 0 3 C0 2.01 0 1.02 0 0 Z " fill="#515150" transform="translate(452,299)"/>
<path d="M0 0 C0 0.99 0 1.98 0 3 C0.66 3.33 1.32 3.66 2 4 C1.67 4.66 1.34 5.32 1 6 C0.01 6.33 -0.98 6.66 -2 7 C-3.68711423 8.6459651 -5.3545622 10.31237149 -7 12 C-7.99 12.495 -7.99 12.495 -9 13 C-9.66 12.34 -10.32 11.68 -11 11 C-10.45730469 10.54109375 -9.91460937 10.0821875 -9.35546875 9.609375 C-8.64003906 8.99578125 -7.92460937 8.3821875 -7.1875 7.75 C-6.47980469 7.14671875 -5.77210938 6.5434375 -5.04296875 5.921875 C-3.08110329 4.07629602 -1.54330375 2.20054668 0 0 Z " fill="#7CA2B4" transform="translate(359,286)"/>
<path d="M0 0 C0.97582031 0.45503906 1.95164062 0.91007813 2.95703125 1.37890625 C3.69308594 1.72824219 4.42914063 2.07757813 5.1875 2.4375 C1.32903169 3.7236561 -0.2449107 2.84982663 -4.0625 1.5625 C-8.6934496 0.06196884 -12.97271221 -1.11228718 -17.8125 -1.5625 C-17.8125 -1.8925 -17.8125 -2.2225 -17.8125 -2.5625 C-10.70152386 -3.81737814 -6.48642648 -3.04783895 0 0 Z " fill="#8EAFBE" transform="translate(392.8125,137.5625)"/>
<path d="M0 0 C0.515625 0.680625 1.03125 1.36125 1.5625 2.0625 C4.50071413 5.60342473 7.70787019 8.79109819 11 12 C10.01 12.33 9.02 12.66 8 13 C5.5 11.1875 5.5 11.1875 3 9 C2.01 8.34 1.02 7.68 0 7 C-0.1875 3.375 -0.1875 3.375 0 0 Z " fill="#828384" transform="translate(455,286)"/>
<path d="M0 0 C7.30645606 1.05084393 14.06392339 2.45677191 21 5 C16.47907032 6.45606519 13.48351204 5.27032841 9 4 C9.33 4.66 9.66 5.32 10 6 C6.40992874 4.66654496 3.20429093 3.1056769 0 1 C0 0.67 0 0.34 0 0 Z " fill="#E13C3B" transform="translate(376,165)"/>
<path d="M0 0 C0.66 0.66 1.32 1.32 2 2 C2.99 1.67 3.98 1.34 5 1 C3.49087042 5.98012761 0.44338151 9.24259942 -3 13 C-4 11 -4 11 -3.22265625 8.3984375 C-2.83980469 7.40070313 -2.45695313 6.40296875 -2.0625 5.375 C-1.68222656 4.37210937 -1.30195313 3.36921875 -0.91015625 2.3359375 C-0.60980469 1.56507813 -0.30945313 0.79421875 0 0 Z " fill="#DCF885" transform="translate(187,397)"/>
<path d="M0 0 C0.33 0 0.66 0 1 0 C1 6.93 1 13.86 1 21 C0.01 20.67 -0.98 20.34 -2 20 C-2.09765625 13.84765625 -2.09765625 13.84765625 -2 12 C-1.67 11.67 -1.34 11.34 -1 11 C-0.76636119 9.15108054 -0.58696365 7.29511969 -0.4375 5.4375 C-0.35371094 4.42558594 -0.26992188 3.41367188 -0.18359375 2.37109375 C-0.12300781 1.58863281 -0.06242187 0.80617187 0 0 Z " fill="#595856" transform="translate(442,237)"/>
<path d="M0 0 C0.66 0.33 1.32 0.66 2 1 C-2.62 5.95 -7.24 10.9 -12 16 C-12.66 15.67 -13.32 15.34 -14 15 C-4.58997722 4.44191344 -4.58997722 4.44191344 0 0 Z " fill="#E0F473" transform="translate(187,180)"/>
<path d="M0 0 C6.75 0.75 6.75 0.75 9 3 C8.01 4.485 8.01 4.485 7 6 C3.7 5.01 0.4 4.02 -3 3 C-2.01 2.67 -1.02 2.34 0 2 C0 1.34 0 0.68 0 0 Z " fill="#64443F" transform="translate(413,160)"/>
<path d="M0 0 C0 0.66 0 1.32 0 2 C0.99 2.66 1.98 3.32 3 4 C1.41800369 4.64910154 -0.16565724 5.29414694 -1.75 5.9375 C-2.63171875 6.29714844 -3.5134375 6.65679687 -4.421875 7.02734375 C-6.61186104 7.85356576 -8.71898271 8.49369943 -11 9 C-3.8 0 -3.8 0 0 0 Z " fill="#D5F57C" transform="translate(223,394)"/>
<path d="M0 0 C2.64465038 3.1254959 3.84414715 6.08788267 5 10 C4.34 10 3.68 10 3 10 C2.67 10.99 2.34 11.98 2 13 C1.34 12.34 0.68 11.68 0 11 C0.66 11 1.32 11 2 11 C2.33 9.68 2.66 8.36 3 7 C1.35 7.33 -0.3 7.66 -2 8 C-1.125 1.125 -1.125 1.125 0 0 Z " fill="#D7F579" transform="translate(180,343)"/>
<path d="M0 0 C0.66 0.33 1.32 0.66 2 1 C2 1.99 2 2.98 2 4 C-2.95 6.475 -2.95 6.475 -8 9 C-8.33 7.68 -8.66 6.36 -9 5 C-7.54735962 4.1361871 -6.0876837 3.28419546 -4.625 2.4375 C-3.40683594 1.72400391 -3.40683594 1.72400391 -2.1640625 0.99609375 C-1.44992187 0.66738281 -0.73578125 0.33867187 0 0 Z " fill="#83A8B8" transform="translate(325,308)"/>
<path d="M0 0 C0.66 0.33 1.32 0.66 2 1 C1.49477778 5.37859255 -1.17827222 7.81651224 -4 11 C-4.33 10.34 -4.66 9.68 -5 9 C-5.66 8.67 -6.32 8.34 -7 8 C-4.69 5.36 -2.38 2.72 0 0 Z " fill="#7DA6BD" transform="translate(427,287)"/>
<path d="M0 0 C1.11375 0.3403125 1.11375 0.3403125 2.25 0.6875 C2.58 1.6775 2.91 2.6675 3.25 3.6875 C1.26432292 3.91536458 -0.72135417 4.14322917 -2.70703125 4.37109375 C-4.94396393 4.65920735 -4.94396393 4.65920735 -7.75 5.6875 C-6.3502077 1.48812309 -4.58927239 -0.52150823 0 0 Z " fill="#C9EC95" transform="translate(205.75,244.3125)"/>
<path d="M0 0 C4.95 0 9.9 0 15 0 C14.01 0.33 13.02 0.66 12 1 C12 1.66 12 2.32 12 3 C7.45194365 3.17835515 4.1205746 2.99785435 0 1 C0 0.67 0 0.34 0 0 Z " fill="#E0F98F" transform="translate(193,456)"/>
<path d="M0 0 C0 0.66 0 1.32 0 2 C-1.43011973 2.86646667 -2.86940619 3.71781829 -4.3125 4.5625 C-5.51326172 5.27599609 -5.51326172 5.27599609 -6.73828125 6.00390625 C-9 7 -9 7 -12 6 C-11.67 5.67 -11.34 5.34 -11 5 C-11.66 4.34 -12.32 3.68 -13 3 C-11.2092015 2.49689942 -9.41733089 1.99761372 -7.625 1.5 C-6.62726563 1.2215625 -5.62953125 0.943125 -4.6015625 0.65625 C-2 0 -2 0 0 0 Z " fill="#CEEF8C" transform="translate(254,447)"/>
<path d="M0 0 C3.04516202 2.83332467 5.16868601 5.65500311 7.25 9.25 C8.03117188 10.58804687 8.03117188 10.58804687 8.828125 11.953125 C9.21484375 12.62859375 9.6015625 13.3040625 10 14 C9.01 14.33 8.02 14.66 7 15 C5.82823482 12.87767021 4.66245215 10.75242209 3.5 8.625 C3.16613281 8.02171875 2.83226562 7.4184375 2.48828125 6.796875 C0 2.2265625 0 2.2265625 0 0 Z " fill="#C6ED92" transform="translate(213,253)"/>
<path d="M0 0 C0.66 1.32 1.32 2.64 2 4 C-0.33333333 6.33333333 -2.66666667 8.66666667 -5 11 C-5.66 10.34 -6.32 9.68 -7 9 C-4.69 6.03 -2.38 3.06 0 0 Z " fill="#86ACBC" transform="translate(338,285)"/>
<path d="M0 0 C6.435 2.97 6.435 2.97 13 6 C9.01508155 7.32830615 7.59951452 6.23204404 3.8125 4.5625 C2.72582031 4.08941406 1.63914063 3.61632812 0.51953125 3.12890625 C-0.31191406 2.75636719 -1.14335937 2.38382812 -2 2 C-1.34 1.34 -0.68 0.68 0 0 Z " fill="#C5EA91" transform="translate(203,276)"/>
<path d="M0 0 C1.84398144 3.1063995 2.2039901 5.05281472 1.75 8.625 C1.66234375 9.40101563 1.5746875 10.17703125 1.484375 10.9765625 C1 13 1 13 -1 15 C-1.18451025 4.44191344 -1.18451025 4.44191344 0 0 Z " fill="#ABD892" transform="translate(172,326)"/>
<path d="M0 0 C0.66 0 1.32 0 2 0 C2 0.66 2 1.32 2 2 C1.34 2 0.68 2 0 2 C0.04125 3.2375 0.0825 4.475 0.125 5.75 C0.13658291 9.01637962 -0.1431298 11.2146947 -2 14 C-2.66 14 -3.32 14 -4 14 C-3.52525225 11.85318469 -3.04508251 9.70756772 -2.5625 7.5625 C-2.29566406 6.36753906 -2.02882813 5.17257812 -1.75390625 3.94140625 C-1 1 -1 1 0 0 Z " fill="#737474" transform="translate(445,294)"/>
<path d="M0 0 C1.134375 0.020625 2.26875 0.04125 3.4375 0.0625 C3.7675 1.0525 4.0975 2.0425 4.4375 3.0625 C1.45898438 3.40429688 1.45898438 3.40429688 -1.51953125 3.74609375 C-3.75646393 4.03420735 -3.75646393 4.03420735 -6.5625 5.0625 C-4.14811644 0.07277397 -4.14811644 0.07277397 0 0 Z " fill="#CDF08A" transform="translate(210.5625,233.9375)"/>
<path d="M0 0 C1.11375 0.1546875 1.11375 0.1546875 2.25 0.3125 C2.58 1.3025 2.91 2.2925 3.25 3.3125 C-0.05 3.9725 -3.35 4.6325 -6.75 5.3125 C-3.42692308 0.38942308 -3.42692308 0.38942308 0 0 Z " fill="#D7F389" transform="translate(215.75,224.6875)"/>
<path d="M0 0 C3 3 6 6 9 9 C8.67 9.99 8.34 10.98 8 12 C4.74451247 8.97704729 2.31022942 5.79537691 0 2 C0 1.34 0 0.68 0 0 Z " fill="#CAEE86" transform="translate(222,247)"/>
<path d="M0 0 C1.46067199 0.45082469 2.91848032 0.91093537 4.375 1.375 C5.18710938 1.63023437 5.99921875 1.88546875 6.8359375 2.1484375 C9 3 9 3 11 5 C7.04 4.67 3.08 4.34 -1 4 C-0.34 3.67 0.32 3.34 1 3 C0.67 2.01 0.34 1.02 0 0 Z " fill="#CAE981" transform="translate(159,452)"/>
<path d="M0 0 C0.66 0.33 1.32 0.66 2 1 C1.88590407 2.45922693 1.75834456 3.91740598 1.625 5.375 C1.55539063 6.18710937 1.48578125 6.99921875 1.4140625 7.8359375 C1 10 1 10 -1 12 C-1.02712066 10.56260487 -1.04645067 9.12506137 -1.0625 7.6875 C-1.07410156 6.88699219 -1.08570313 6.08648437 -1.09765625 5.26171875 C-1 3 -1 3 0 0 Z " fill="#E0FA83" transform="translate(174,318)"/>
<path d="M0 0 C0.433125 0.495 0.86625 0.99 1.3125 1.5 C2.99740483 3.33218192 2.99740483 3.33218192 6 3 C6.33 4.32 6.66 5.64 7 7 C6.01 7.33 5.02 7.66 4 8 C0 3.375 0 3.375 0 0 Z " fill="#737475" transform="translate(452,299)"/>
<path d="M0 0 C2.5 2.3125 2.5 2.3125 5 5 C5 5.99 5 6.98 5 8 C4.01 8 3.02 8 2 8 C0.93224776 6.03533587 -0.06553465 4.03144641 -1 2 C-0.67 1.34 -0.34 0.68 0 0 Z " fill="#616160" transform="translate(458,296)"/>
<path d="M0 0 C1.32 0 2.64 0 4 0 C3.67 2.97 3.34 5.94 3 9 C2.67 9 2.34 9 2 9 C1.67 7.35 1.34 5.7 1 4 C0.34 4.66 -0.32 5.32 -1 6 C-0.67 4.02 -0.34 2.04 0 0 Z " fill="#DAF67E" transform="translate(178,295)"/>
<path d="M0 0 C2.64 0 5.28 0 8 0 C8.33 0.66 8.66 1.32 9 2 C11.01669827 3.13350534 11.01669827 3.13350534 13 4 C10.21078018 5.39460991 8.87922897 4.58060045 5.9375 3.6875 C4.58978516 3.29111328 4.58978516 3.29111328 3.21484375 2.88671875 C1 2 1 2 0 0 Z " fill="#92302F" transform="translate(356,242)"/>
<path d="M0 0 C0.33 0.66 0.66 1.32 1 2 C2.89533342 2.46523063 2.89533342 2.46523063 5.0625 2.625 C6.361875 2.74875 7.66125 2.8725 9 3 C9 3.99 9 4.98 9 6 C5.65626525 5.44271087 2.96687001 4.64826111 0 3 C0 2.01 0 1.02 0 0 Z " fill="#85A9BA" transform="translate(296,306)"/>
<path d="M0 0 C0.66 0.99 1.32 1.98 2 3 C0.35 4.65 -1.3 6.3 -3 8 C-3.99 7.67 -4.98 7.34 -6 7 C-5.67 6.01 -5.34 5.02 -5 4 C-4.01 3.67 -3.02 3.34 -2 3 C-1.34 2.01 -0.68 1.02 0 0 Z " fill="#8AACBC" transform="translate(403,271)"/>
<path d="M0 0 C2.50037734 2.17424117 3.43628586 3.73045798 4 7 C3.34 7 2.68 7 2 7 C1.67 7.66 1.34 8.32 1 9 C0 8 0 8 -0.09765625 6.15234375 C-0.06510417 4.1015625 -0.03255208 2.05078125 0 0 Z " fill="#D2F286" transform="translate(134,428)"/>
<path d="M0 0 C0.66 1.32 1.32 2.64 2 4 C-1.465 5.485 -1.465 5.485 -5 7 C-5 6.34 -5 5.68 -5 5 C-5.66 4.67 -6.32 4.34 -7 4 C-6.030625 3.525625 -5.06125 3.05125 -4.0625 2.5625 C-1.19522563 1.29806053 -1.19522563 1.29806053 0 0 Z " fill="#82AAAF" transform="translate(197,282)"/>
<path d="M0 0 C2.8125 -0.25 2.8125 -0.25 6 0 C8.04040776 2.04040776 9 3.08325244 9 6 C8.34 6 7.68 6 7 6 C7 5.34 7 4.68 7 4 C6.21625 3.71125 5.4325 3.4225 4.625 3.125 C2 2 2 2 0 0 Z " fill="#D95555" transform="translate(426,164)"/>
<path d="M0 0 C0.33 0 0.66 0 1 0 C1 1.65 1 3.3 1 5 C1.66 5.33 2.32 5.66 3 6 C1.68 8.31 0.36 10.62 -1 13 C-2.12758089 9.61725734 -1.81750262 8.23221777 -1.0625 4.8125 C-0.86785156 3.91144531 -0.67320312 3.01039063 -0.47265625 2.08203125 C-0.23869141 1.05142578 -0.23869141 1.05142578 0 0 Z " fill="#CEF47C" transform="translate(177,351)"/>
<path d="M0 0 C0.66 0 1.32 0 2 0 C3.7265625 1.75 3.7265625 1.75 5.625 4 C6.25664062 4.7425 6.88828125 5.485 7.5390625 6.25 C8.02117187 6.8275 8.50328125 7.405 9 8 C8.34 8.66 7.68 9.32 7 10 C5.82739389 8.71372289 4.6620717 7.42080217 3.5 6.125 C2.8503125 5.40570313 2.200625 4.68640625 1.53125 3.9453125 C0 2 0 2 0 0 Z " fill="#B0DB9B" transform="translate(227,236)"/>
<path d="M0 0 C1.70884005 1.62339805 3.37446717 3.29319053 5 5 C5 5.66 5 6.32 5 7 C-0.75 5.25 -0.75 5.25 -3 3 C-2.01 2.67 -1.02 2.34 0 2 C0 1.34 0 0.68 0 0 Z " fill="#CAEF79" transform="translate(298,431)"/>
<path d="M0 0 C2.75 0.8125 2.75 0.8125 5 2 C5 2.66 5 3.32 5 4 C2.03 3.67 -0.94 3.34 -4 3 C-2.3125 1.375 -2.3125 1.375 0 0 Z " fill="#4E413C" transform="translate(408,158)"/>
<path d="M0 0 C0 3.90838866 -1.50567876 5.11594107 -4 8 C-4.99 7.67 -5.98 7.34 -7 7 C-4.69 4.69 -2.38 2.38 0 0 Z " fill="#7BAAA5" transform="translate(450,438)"/>
<path d="M0 0 C0.66 0.66 1.32 1.32 2 2 C2.99 1.67 3.98 1.34 5 1 C4.34 2.65 3.68 4.3 3 6 C2.01 6 1.02 6 0 6 C-1.125 2.25 -1.125 2.25 0 0 Z " fill="#D4F18B" transform="translate(187,397)"/>
<path d="M0 0 C1.3609623 2.7219246 0.70366248 4.1831957 0.0625 7.125 C-0.13214844 8.03507812 -0.32679688 8.94515625 -0.52734375 9.8828125 C-0.68332031 10.58148438 -0.83929688 11.28015625 -1 12 C-1.66 12 -2.32 12 -3 12 C-2.69230293 10.18667846 -2.37870936 8.37435655 -2.0625 6.5625 C-1.80146484 5.04849609 -1.80146484 5.04849609 -1.53515625 3.50390625 C-1 1 -1 1 0 0 Z " fill="#99C39A" transform="translate(176,355)"/>
</svg>
